<svg xmlns="http://www.w3.org/2000/svg" width="385" height="193" fill="none"><path fill="#2D3748" d="M64.362 2.352v23.522h-5.404V15.075l.178-7.235h-.071L53.27 25.874h-4.942L42.534 7.84h-.071l.177 7.235v10.799h-5.439V2.352h8.71l3.697 11.975 1.316 4.99h.07l1.352-4.955 3.661-12.01h8.355zM78.98 14.576c0-.831-.237-1.485-.71-1.96-.451-.499-1.067-.748-1.85-.748-.781 0-1.457.202-2.026.605-.545.38-.924 1.07-1.137 2.067l-5.12-1.211c.332-1.71 1.21-3.077 2.631-4.099 1.422-1.021 3.425-1.532 6.008-1.532 1.73 0 3.2.261 4.409.784 1.232.499 2.168 1.26 2.808 2.28.664.999.995 2.234.995 3.707v6.522c0 .927.415 1.39 1.245 1.39.426 0 .77-.047 1.03-.143l-.355 3.457c-.71.333-1.576.5-2.595.5-.924 0-1.742-.143-2.453-.428-.711-.31-1.268-.76-1.67-1.355-.404-.617-.605-1.39-.605-2.316v-.214l.675-.25c0 1.022-.308 1.878-.924 2.567-.593.689-1.375 1.2-2.346 1.532a8.952 8.952 0 01-2.987.499c-1.209 0-2.263-.19-3.164-.57-.9-.38-1.6-.927-2.097-1.64-.474-.736-.711-1.639-.711-2.708 0-1.283.379-2.34 1.137-3.172.782-.855 2.003-1.45 3.662-1.782l6.72-1.39-.036 3.208-3.413.712c-.711.143-1.245.357-1.6.642-.332.261-.498.665-.498 1.212 0 .522.19.914.57 1.176.378.261.829.392 1.35.392.403 0 .782-.06 1.138-.178.379-.12.71-.298.995-.535.284-.261.51-.582.675-.962.166-.38.25-.832.25-1.355v-4.704zM109.167 8.054l-8.533 9.124-1.137.32-5.084 5.703L94.377 17l8.07-8.946h6.72zM95.693.5v25.375h-6.044V.499h6.044zm5.866 12.901l7.999 12.474h-6.684l-5.261-8.91 3.946-3.564zM119.467 26.23c-1.968 0-3.674-.368-5.12-1.105a7.893 7.893 0 01-3.306-3.172c-.782-1.378-1.173-3.04-1.173-4.99 0-1.947.391-3.61 1.173-4.989a7.942 7.942 0 013.271-3.171c1.422-.737 3.045-1.105 4.87-1.105 1.872 0 3.46.368 4.764 1.105 1.327.712 2.334 1.71 3.022 2.993.687 1.26 1.031 2.709 1.031 4.348 0 .428-.012.856-.036 1.283-.024.428-.059.784-.107 1.07h-14.078v-3.244h11.412l-2.879 1.105c0-1.426-.261-2.518-.783-3.279-.497-.76-1.279-1.14-2.346-1.14-.758 0-1.41.178-1.955.534-.522.357-.925.915-1.209 1.675-.261.76-.391 1.735-.391 2.923 0 1.164.154 2.114.462 2.85.308.714.747 1.236 1.316 1.569.568.309 1.256.463 2.062.463.9 0 1.611-.178 2.133-.534a3.151 3.151 0 001.208-1.497l4.835 1.604a5.69 5.69 0 01-1.742 2.601c-.806.69-1.777 1.212-2.915 1.568a11.479 11.479 0 01-3.519.535zM141.552 25.874V8.054h5.404l.177 3.457c.569-1.259 1.363-2.21 2.382-2.85 1.043-.642 2.24-.963 3.591-.963 1.327 0 2.477.297 3.448.89.972.595 1.695 1.474 2.169 2.638.379-.784.865-1.437 1.457-1.96a6.305 6.305 0 012.098-1.176 7.577 7.577 0 012.417-.392c1.185 0 2.228.238 3.129.713.9.451 1.611 1.152 2.133 2.102.545.927.818 2.091.818 3.493v11.868h-6.044V15.396c0-1.14-.225-1.937-.676-2.388-.426-.451-1.007-.677-1.742-.677-.592 0-1.137.154-1.635.463-.474.285-.841.725-1.102 1.319-.261.594-.391 1.342-.391 2.245v9.516h-6.044V15.396c0-1.14-.225-1.937-.675-2.388-.45-.451-1.031-.677-1.742-.677a3.1 3.1 0 00-1.564.428c-.474.285-.854.736-1.138 1.354-.284.594-.427 1.378-.427 2.352v9.409h-6.043zM183.481 7.698c1.872 0 3.507.368 4.906 1.105a7.618 7.618 0 013.306 3.171c.806 1.379 1.208 3.042 1.208 4.99 0 1.948-.402 3.623-1.208 5.025a7.893 7.893 0 01-3.306 3.172c-1.399.713-3.034 1.069-4.906 1.069-1.825 0-3.449-.356-4.871-1.07a8.124 8.124 0 01-3.342-3.171c-.782-1.402-1.173-3.077-1.173-5.025 0-1.948.391-3.611 1.173-4.99.806-1.401 1.92-2.459 3.342-3.171 1.422-.737 3.046-1.105 4.871-1.105zm0 4.312c-.688 0-1.28.167-1.778.5-.498.332-.877.866-1.138 1.603-.26.736-.391 1.687-.391 2.85 0 1.165.131 2.115.391 2.852.261.713.64 1.247 1.138 1.604.498.332 1.09.499 1.778.499.711 0 1.315-.167 1.813-.5.497-.356.877-.89 1.137-1.603.261-.737.391-1.687.391-2.851s-.13-2.115-.391-2.851c-.26-.737-.64-1.271-1.137-1.604-.498-.332-1.102-.499-1.813-.499zM196.301 25.874V8.054h5.404l.32 6.13-.675-.677c.237-1.283.651-2.352 1.244-3.207.616-.856 1.374-1.497 2.275-1.925.924-.451 1.955-.677 3.093-.677 1.232 0 2.299.238 3.199.713a5.138 5.138 0 012.169 2.102c.522.927.782 2.091.782 3.493v11.868h-6.043V15.61c0-1.236-.237-2.091-.711-2.566-.474-.476-1.079-.713-1.814-.713-.568 0-1.102.143-1.599.428-.498.26-.889.689-1.173 1.283-.285.594-.427 1.39-.427 2.387v9.445h-6.044zM227.021 26.23c-1.967 0-3.673-.368-5.119-1.105a7.893 7.893 0 01-3.306-3.172c-.782-1.378-1.173-3.04-1.173-4.99 0-1.947.391-3.61 1.173-4.989a7.945 7.945 0 013.27-3.171c1.422-.737 3.046-1.105 4.871-1.105 1.872 0 3.46.368 4.764 1.105 1.327.712 2.334 1.71 3.021 2.993.688 1.26 1.031 2.709 1.031 4.348 0 .428-.011.856-.035 1.283-.024.428-.059.784-.107 1.07h-14.078v-3.244h11.412l-2.88 1.105c0-1.426-.26-2.518-.782-3.279-.497-.76-1.28-1.14-2.346-1.14-.759 0-1.41.178-1.955.534-.522.357-.925.915-1.209 1.675-.261.76-.391 1.735-.391 2.923 0 1.164.154 2.114.462 2.85.308.714.747 1.236 1.315 1.569.569.309 1.256.463 2.062.463.901 0 1.612-.178 2.133-.534.545-.357.948-.856 1.209-1.497l4.835 1.604a5.697 5.697 0 01-1.742 2.601c-.806.69-1.778 1.212-2.915 1.568a11.48 11.48 0 01-3.52.535zM256.226 8.054l-6.47 17.82c-.664 1.877-1.387 3.373-2.169 4.49s-1.706 1.924-2.773 2.424c-1.066.498-2.346.748-3.839.748-.995 0-1.908-.107-2.737-.32-.83-.215-1.553-.512-2.169-.892l1.209-4.098c.426.309.877.522 1.351.641.474.143 1.078.214 1.813.214.687 0 1.244-.119 1.671-.356.45-.238.805-.69 1.066-1.355l.462-1.104-2.062-4.847-5.332-13.365h6.648l2.737 10.157.853 3.778.996-3.92 2.737-10.015h6.008zM275.755 0c.972 0 1.825.107 2.56.32.735.19 1.28.417 1.635.678l-.604 3.778a3.368 3.368 0 00-.889-.392c-.331-.096-.746-.143-1.244-.143-.829 0-1.517.19-2.062.57-.521.38-.782 1.046-.782 1.996v2.316l.356.998v15.753h-6.044V6.414c0-1.14.178-2.114.533-2.921a5.44 5.44 0 011.564-1.996 6.416 6.416 0 012.276-1.14A10.02 10.02 0 01275.755 0zm4.018 8.054v4.313h-13.936V8.054h13.936zM282.227 25.874V8.054h5.333l.249 3.85c.45-1.331 1.113-2.365 1.99-3.101.901-.737 2.039-1.105 3.413-1.105.451 0 .83.036 1.138.107.332.071.592.166.782.285l-.604 4.99a3.804 3.804 0 00-.925-.214 6.825 6.825 0 00-1.315-.107 4.38 4.38 0 00-1.991.463 3.651 3.651 0 00-1.493 1.39c-.356.594-.533 1.354-.533 2.28v8.982h-6.044zM305.756 7.698c1.872 0 3.507.368 4.906 1.105a7.618 7.618 0 013.306 3.171c.806 1.379 1.208 3.042 1.208 4.99 0 1.948-.402 3.623-1.208 5.025a7.893 7.893 0 01-3.306 3.172c-1.399.713-3.034 1.069-4.906 1.069-1.825 0-3.449-.356-4.871-1.07a8.124 8.124 0 01-3.342-3.171c-.782-1.402-1.173-3.077-1.173-5.025 0-1.948.391-3.611 1.173-4.99.806-1.401 1.92-2.459 3.342-3.171 1.422-.737 3.046-1.105 4.871-1.105zm0 4.312c-.688 0-1.28.167-1.778.5-.498.332-.877.866-1.138 1.603-.26.736-.391 1.687-.391 2.85 0 1.165.131 2.115.391 2.852.261.713.64 1.247 1.138 1.604.498.332 1.09.499 1.778.499.711 0 1.315-.167 1.813-.5.497-.356.877-.89 1.137-1.603.261-.737.391-1.687.391-2.851s-.13-2.115-.391-2.851c-.26-.737-.64-1.271-1.137-1.604-.498-.332-1.102-.499-1.813-.499zM318.576 25.874V8.054h5.404l.178 3.457c.569-1.259 1.363-2.21 2.382-2.85 1.042-.642 2.239-.963 3.59-.963 1.327 0 2.477.297 3.449.89.971.595 1.694 1.474 2.168 2.638.379-.784.865-1.437 1.458-1.96a6.29 6.29 0 012.097-1.176 7.579 7.579 0 012.418-.392c1.185 0 2.228.238 3.128.713.901.451 1.612 1.152 2.133 2.102.545.927.818 2.091.818 3.493v11.868h-6.044V15.396c0-1.14-.225-1.937-.675-2.388-.427-.451-1.007-.677-1.742-.677-.593 0-1.138.154-1.635.463-.474.285-.842.725-1.103 1.319-.26.594-.391 1.342-.391 2.245v9.516h-6.043V15.396c0-1.14-.225-1.937-.676-2.388-.45-.451-1.031-.677-1.742-.677-.545 0-1.066.143-1.564.428-.474.285-.853.736-1.137 1.354-.285.594-.427 1.378-.427 2.352v9.409h-6.044z"/><path fill="#48BB78" d="M89.928 46.702l-6.47 17.82c-.664 1.876-1.386 3.373-2.169 4.49-.782 1.117-1.706 1.924-2.773 2.423-1.066.5-2.346.749-3.839.749-.995 0-1.908-.107-2.737-.321-.83-.214-1.553-.51-2.169-.891l1.209-4.098c.426.308.877.522 1.35.641.475.143 1.079.214 1.814.214.687 0 1.244-.119 1.67-.357.45-.237.806-.689 1.067-1.354l.462-1.105-2.062-4.846-5.332-13.365h6.648l2.737 10.157.853 3.778.996-3.92 2.737-10.015h6.008zM100.227 46.346c1.872 0 3.508.368 4.906 1.105a7.617 7.617 0 013.306 3.171c.806 1.378 1.209 3.041 1.209 4.99 0 1.948-.403 3.623-1.209 5.025a7.893 7.893 0 01-3.306 3.172c-1.398.712-3.034 1.069-4.906 1.069-1.825 0-3.449-.357-4.87-1.07a8.122 8.122 0 01-3.342-3.171c-.782-1.402-1.174-3.077-1.174-5.025 0-1.949.392-3.612 1.174-4.99.805-1.401 1.92-2.459 3.341-3.172 1.422-.736 3.046-1.104 4.871-1.104zm0 4.312c-.688 0-1.28.166-1.778.499-.497.333-.877.867-1.137 1.604-.261.736-.391 1.686-.391 2.85 0 1.165.13 2.115.39 2.852.261.713.64 1.247 1.138 1.603.498.333 1.09.5 1.778.5.711 0 1.315-.167 1.813-.5.498-.356.877-.89 1.138-1.603.26-.737.391-1.687.391-2.851 0-1.165-.131-2.115-.391-2.851-.261-.737-.64-1.272-1.138-1.604-.498-.333-1.102-.499-1.813-.499zM119.056 64.878c-1.209 0-2.276-.202-3.2-.606-.901-.428-1.612-1.105-2.133-2.032-.521-.926-.782-2.138-.782-3.635V46.702h6.044V57.18c0 1.14.225 1.936.675 2.388.45.451 1.09.677 1.92.677.426 0 .829-.072 1.208-.214.38-.166.712-.404.996-.713.284-.332.498-.748.64-1.247.166-.523.249-1.129.249-1.818v-9.55h6.043V64.52h-5.403l-.178-3.35c-.569 1.26-1.363 2.198-2.382 2.816-1.019.594-2.252.89-3.697.89zM135.058 64.521V46.702h5.333l.249 3.849c.45-1.33 1.114-2.364 1.991-3.1.9-.737 2.038-1.105 3.413-1.105.45 0 .829.035 1.137.107.332.07.593.166.782.285l-.604 4.99a3.806 3.806 0 00-.924-.215 6.836 6.836 0 00-1.316-.107c-.711 0-1.374.155-1.991.464a3.656 3.656 0 00-1.493 1.39c-.355.593-.533 1.354-.533 2.28v8.981h-6.044zM169.904 53.224c0-.832-.237-1.485-.711-1.96-.45-.5-1.066-.749-1.848-.749s-1.458.202-2.027.606c-.545.38-.924 1.07-1.137 2.067l-5.12-1.211c.332-1.711 1.209-3.077 2.631-4.099 1.422-1.022 3.425-1.532 6.008-1.532 1.73 0 3.2.261 4.408.784 1.233.499 2.169 1.259 2.809 2.28.664.998.995 2.234.995 3.707v6.522c0 .926.415 1.39 1.245 1.39.426 0 .77-.048 1.031-.143l-.356 3.457c-.711.333-1.576.5-2.595.5-.924 0-1.742-.143-2.453-.429-.711-.308-1.268-.76-1.671-1.354-.403-.618-.604-1.39-.604-2.316v-.214l.675-.25c0 1.022-.308 1.877-.924 2.566-.593.69-1.375 1.2-2.347 1.533a8.952 8.952 0 01-2.986.499c-1.209 0-2.263-.19-3.164-.57-.9-.38-1.6-.927-2.097-1.64-.474-.736-.711-1.64-.711-2.708 0-1.283.379-2.34 1.137-3.172.782-.855 2.003-1.45 3.662-1.782l6.719-1.39-.035 3.207-3.413.713c-.711.143-1.245.357-1.6.642-.332.261-.498.665-.498 1.211 0 .523.19.915.569 1.176.379.262.83.393 1.351.393.403 0 .782-.06 1.138-.179a2.87 2.87 0 00.995-.534 2.81 2.81 0 00.675-.962c.166-.38.249-.832.249-1.355v-4.704zM186.581 64.878c-1.209 0-2.275-.202-3.199-.606-.901-.428-1.612-1.105-2.133-2.032-.522-.926-.783-2.138-.783-3.635V46.702h6.044V57.18c0 1.14.225 1.936.676 2.388.45.451 1.09.677 1.919.677.427 0 .83-.072 1.209-.214.379-.166.711-.404.995-.713.285-.332.498-.748.64-1.247.166-.523.249-1.129.249-1.818v-9.55h6.044V64.52h-5.404l-.178-3.35c-.568 1.26-1.362 2.198-2.382 2.816-1.019.594-2.251.89-3.697.89zM209.125 64.878c-1.469 0-2.761-.357-3.875-1.07-1.09-.736-1.943-1.793-2.559-3.171-.593-1.378-.889-3.03-.889-4.954 0-1.996.308-3.683.924-5.06.64-1.379 1.517-2.436 2.631-3.172 1.138-.737 2.441-1.105 3.911-1.105 1.611 0 2.903.499 3.875 1.497.995.974 1.635 2.221 1.919 3.742l-.569.748V39.147h6.044V64.52h-5.404l-.391-6.058.711.534c-.142 1.188-.509 2.222-1.102 3.1a6.129 6.129 0 01-2.204 2.068c-.877.475-1.884.713-3.022.713zm2.098-4.455c.687 0 1.268-.178 1.742-.535.498-.38.877-.938 1.137-1.675.261-.736.391-1.639.391-2.708 0-.998-.13-1.842-.391-2.53-.237-.713-.604-1.248-1.102-1.604-.474-.38-1.054-.57-1.742-.57-1.042 0-1.872.392-2.488 1.176-.593.76-.889 1.972-.889 3.635 0 1.663.296 2.886.889 3.67.592.76 1.41 1.14 2.453 1.14zM227.894 44.635c-1.232 0-2.133-.226-2.701-.677-.546-.475-.818-1.212-.818-2.21 0-1.021.272-1.758.818-2.21.568-.474 1.469-.712 2.701-.712 1.209 0 2.098.237 2.667.713.569.451.853 1.188.853 2.21 0 .997-.284 1.734-.853 2.209-.569.451-1.458.677-2.667.677zm3.022 2.067v17.82h-6.043v-17.82h6.043zM243.893 64.878c-1.967 0-3.674-.368-5.119-1.105a7.89 7.89 0 01-3.307-3.172c-.782-1.378-1.173-3.041-1.173-4.99 0-1.947.391-3.61 1.173-4.989a7.948 7.948 0 013.271-3.172c1.422-.736 3.045-1.104 4.87-1.104 1.873 0 3.461.368 4.764 1.105 1.327.712 2.335 1.71 3.022 2.993.687 1.26 1.031 2.709 1.031 4.348 0 .428-.012.855-.036 1.283a10.05 10.05 0 01-.106 1.07h-14.078V53.9h11.411l-2.879 1.105c0-1.426-.261-2.519-.782-3.279-.498-.76-1.28-1.14-2.347-1.14-.758 0-1.41.178-1.955.534-.521.357-.924.915-1.209 1.675-.26.76-.391 1.735-.391 2.923 0 1.164.154 2.114.463 2.85.308.713.746 1.236 1.315 1.569.569.309 1.256.463 2.062.463.9 0 1.611-.178 2.133-.535.545-.356.948-.855 1.209-1.496l4.834 1.603a5.682 5.682 0 01-1.742 2.602c-.805.69-1.777 1.212-2.915 1.568a11.482 11.482 0 01-3.519.535zM255.806 64.521V46.702h5.404l.32 6.13-.676-.677c.237-1.283.652-2.352 1.244-3.208.617-.855 1.375-1.497 2.276-1.924.924-.452 1.955-.677 3.093-.677 1.232 0 2.299.237 3.199.713a5.15 5.15 0 012.169 2.102c.521.927.782 2.09.782 3.493V64.52h-6.044V54.257c0-1.235-.237-2.09-.711-2.566-.474-.475-1.078-.712-1.813-.712-.569 0-1.102.142-1.6.427-.497.262-.888.69-1.173 1.283-.284.594-.426 1.39-.426 2.388v9.444h-6.044zM286.277 46.346c1.801 0 3.294.261 4.479.784 1.209.499 2.145 1.176 2.809 2.031.687.832 1.114 1.734 1.28 2.709l-5.582 1.853c-.166-1.022-.474-1.782-.924-2.281-.427-.523-1.055-.784-1.884-.784-.759 0-1.399.178-1.92.535-.498.332-.877.879-1.138 1.639-.26.736-.391 1.687-.391 2.851s.143 2.114.427 2.851c.284.713.687 1.236 1.209 1.568.521.309 1.137.464 1.848.464.593 0 1.079-.107 1.458-.321.403-.238.735-.57.995-.998.261-.428.427-.95.498-1.568l5.439 1.746c-.166 1.045-.616 1.984-1.351 2.816-.711.807-1.659 1.449-2.844 1.924-1.185.475-2.571.713-4.159.713-1.944 0-3.638-.357-5.084-1.07-1.446-.736-2.56-1.793-3.342-3.171-.782-1.402-1.173-3.077-1.173-5.025 0-1.949.391-3.612 1.173-4.99.782-1.401 1.873-2.459 3.271-3.172 1.422-.736 3.057-1.104 4.906-1.104zM306.697 64.878c-1.967 0-3.674-.368-5.12-1.105a7.893 7.893 0 01-3.306-3.172c-.782-1.378-1.173-3.041-1.173-4.99 0-1.947.391-3.61 1.173-4.989a7.948 7.948 0 013.271-3.172c1.422-.736 3.045-1.104 4.87-1.104 1.873 0 3.461.368 4.764 1.105 1.327.712 2.335 1.71 3.022 2.993.687 1.26 1.031 2.709 1.031 4.348 0 .428-.012.855-.036 1.283a10.05 10.05 0 01-.106 1.07h-14.078V53.9h11.411l-2.879 1.105c0-1.426-.261-2.519-.782-3.279-.498-.76-1.28-1.14-2.347-1.14-.758 0-1.41.178-1.955.534-.521.357-.924.915-1.209 1.675-.26.76-.391 1.735-.391 2.923 0 1.164.154 2.114.462 2.85.309.713.747 1.236 1.316 1.569.569.309 1.256.463 2.062.463.9 0 1.611-.178 2.133-.535.545-.356.948-.855 1.209-1.496l4.834 1.603a5.682 5.682 0 01-1.742 2.602c-.805.69-1.777 1.212-2.915 1.568a11.482 11.482 0 01-3.519.535z"/><path fill="#718096" d="M0 103.594v5.67h.812v-4.105h.052l1.668 4.097h.674l1.668-4.095h.053v4.103h.812v-5.67H4.703l-1.8 4.408h-.067l-1.8-4.408H0zM8.7 109.35c1.196 0 1.977-.878 1.977-2.193 0-1.323-.781-2.201-1.977-2.201-1.196 0-1.978.878-1.978 2.201 0 1.315.782 2.193 1.978 2.193zm.003-.695c-.782 0-1.147-.684-1.147-1.5 0-.814.365-1.506 1.147-1.506.776 0 1.14.692 1.14 1.506 0 .816-.364 1.5-1.14 1.5zM12.425 106.739c0-.678.414-1.066.988-1.066.56 0 .9.369.9.986v2.605h.826v-2.705c0-1.052-.577-1.603-1.444-1.603-.638 0-1.055.297-1.251.748h-.053v-.692H11.6v4.252h.825v-2.525zM18.075 109.35c.925 0 1.58-.457 1.767-1.149l-.781-.141c-.15.401-.508.606-.978.606-.707 0-1.182-.459-1.204-1.279h3.016v-.293c0-1.537-.917-2.138-1.878-2.138-1.182 0-1.961.903-1.961 2.21 0 1.32.768 2.184 2.019 2.184zm-1.193-2.583c.033-.604.47-1.127 1.14-1.127.641 0 1.06.476 1.064 1.127h-2.204zM22.79 105.012h-.869v-1.019h-.826v1.019h-.621v.664h.621v2.511c-.002.773.586 1.146 1.238 1.132.262-.002.439-.052.535-.088l-.149-.684c-.055.011-.157.036-.29.036-.268 0-.508-.089-.508-.567v-2.34h.87v-.664zM23.704 109.264h.826v-4.252h-.826v4.252zm.417-4.908c.285 0 .522-.222.522-.493s-.237-.496-.522-.496a.512.512 0 00-.522.496c0 .271.235.493.522.493zM25.553 109.264h3.405v-.72H26.67v-.038l2.21-2.891v-.603h-3.254v.72h2.223v.038l-2.297 2.927v.567zM31.639 109.35c.925 0 1.58-.457 1.767-1.149l-.782-.141c-.149.401-.508.606-.977.606-.707 0-1.182-.459-1.204-1.279h3.015v-.293c0-1.537-.916-2.138-1.877-2.138-1.183 0-1.961.903-1.961 2.21 0 1.32.767 2.184 2.018 2.184zm-1.194-2.583c.034-.604.47-1.127 1.141-1.127.64 0 1.06.476 1.063 1.127h-2.204zM36.955 110.859c.682 0 1.113-.357 1.358-1.027l1.754-4.812-.892-.008-1.074 3.3h-.044l-1.075-3.3H36.1l1.552 4.307-.103.283c-.21.565-.505.612-.958.487l-.199.678c.1.045.315.092.564.092zM42.48 109.35c1.196 0 1.977-.878 1.977-2.193 0-1.323-.781-2.201-1.977-2.201-1.196 0-1.977.878-1.977 2.201 0 1.315.781 2.193 1.977 2.193zm.003-.695c-.782 0-1.146-.684-1.146-1.5 0-.814.364-1.506 1.146-1.506.776 0 1.14.692 1.14 1.506 0 .816-.364 1.5-1.14 1.5zM48.066 107.501c.003.722-.533 1.065-.997 1.065-.51 0-.864-.37-.864-.949v-2.605h-.826v2.705c0 1.054.577 1.602 1.392 1.602.638 0 1.071-.337 1.267-.791h.045v.736h.812v-4.252h-.829v2.489zM50.004 109.264h.826v-2.597c0-.556.428-.958 1.013-.958.171 0 .365.031.431.05v-.791a3.104 3.104 0 00-.35-.02c-.498 0-.923.283-1.078.739h-.044v-.675h-.798v4.252zM56.833 109.35c1.003 0 1.652-.604 1.743-1.431h-.804c-.105.459-.46.731-.933.731-.699 0-1.149-.585-1.149-1.512 0-.911.459-1.484 1.149-1.484.525 0 .845.332.933.731h.804c-.088-.858-.787-1.429-1.75-1.429-1.197 0-1.97.903-1.97 2.201 0 1.282.746 2.193 1.977 2.193zM61.246 109.35c1.196 0 1.977-.878 1.977-2.193 0-1.323-.781-2.201-1.977-2.201-1.196 0-1.977.878-1.977 2.201 0 1.315.781 2.193 1.977 2.193zm.003-.695c-.782 0-1.147-.684-1.147-1.5 0-.814.365-1.506 1.147-1.506.776 0 1.14.692 1.14 1.506 0 .816-.364 1.5-1.14 1.5zM64.97 106.739c0-.678.415-1.066.99-1.066.56 0 .9.369.9.986v2.605h.825v-2.705c0-1.052-.577-1.603-1.444-1.603-.638 0-1.055.297-1.251.748h-.053v-.692h-.792v4.252h.826v-2.525zM70.773 105.012h-.87v-1.019h-.826v1.019h-.621v.664h.621v2.511c-.003.773.585 1.146 1.237 1.132.263-.002.44-.052.536-.088l-.15-.684c-.054.011-.157.036-.29.036-.267 0-.507-.089-.507-.567v-2.34h.87v-.664zM73.469 109.35c.925 0 1.58-.457 1.767-1.149l-.781-.141c-.15.401-.508.606-.978.606-.707 0-1.182-.459-1.204-1.279h3.016v-.293c0-1.537-.917-2.138-1.878-2.138-1.182 0-1.961.903-1.961 2.21 0 1.32.768 2.184 2.019 2.184zm-1.193-2.583c.033-.604.47-1.127 1.14-1.127.64 0 1.06.476 1.064 1.127h-2.204zM77.03 106.739c0-.678.415-1.066.99-1.066.56 0 .9.369.9.986v2.605h.825v-2.705c0-1.052-.577-1.603-1.444-1.603-.638 0-1.055.297-1.251.748h-.053v-.692h-.792v4.252h.826v-2.525zM82.833 105.012h-.87v-1.019h-.826v1.019h-.621v.664h.621v2.511c-.003.773.585 1.146 1.237 1.132.263-.002.44-.052.536-.088l-.15-.684c-.054.011-.157.036-.29.036-.267 0-.507-.089-.507-.567v-2.34h.87v-.664zM85.87 109.264h.807v-.662h.069c.149.272.453.745 1.226.745 1.027 0 1.773-.825 1.773-2.201 0-1.378-.757-2.19-1.781-2.19-.787 0-1.072.482-1.218.745h-.05v-2.107h-.825v5.67zm.81-2.126c0-.889.386-1.478 1.107-1.478.748 0 1.124.634 1.124 1.478 0 .853-.387 1.503-1.124 1.503-.71 0-1.107-.609-1.107-1.503zM91.042 110.859c.682 0 1.113-.357 1.359-1.027l1.754-4.812-.892-.008-1.075 3.3h-.044l-1.074-3.3h-.884l1.552 4.307-.102.283c-.21.565-.505.612-.958.487l-.2.678c.1.045.316.092.564.092zM98.778 109.35c1.002 0 1.651-.604 1.742-1.431h-.803c-.105.459-.462.731-.934.731-.699 0-1.149-.585-1.149-1.512 0-.911.459-1.484 1.15-1.484.524 0 .844.332.932.731h.804c-.088-.858-.787-1.429-1.75-1.429-1.197 0-1.97.903-1.97 2.201 0 1.282.746 2.193 1.978 2.193zM102.229 106.739c0-.678.428-1.066 1.016-1.066.569 0 .909.363.909.986v2.605h.825v-2.705c0-1.06-.579-1.603-1.452-1.603-.66 0-1.058.288-1.257.748h-.052v-2.11h-.815v5.67h.826v-2.525zM107.316 109.358c.701 0 1.096-.357 1.254-.675h.033v.581h.806v-2.824c0-1.237-.972-1.484-1.646-1.484-.768 0-1.475.31-1.751 1.086l.776.177c.122-.302.431-.593.986-.593.533 0 .807.28.807.762v.019c0 .302-.31.296-1.072.385-.804.094-1.626.304-1.626 1.271 0 .836.626 1.295 1.433 1.295zm.179-.664c-.466 0-.803-.211-.803-.62 0-.443.392-.601.87-.665.267-.036.903-.108 1.021-.227v.548c0 .504-.4.964-1.088.964zM110.509 109.264h.826v-2.597c0-.556.428-.958 1.013-.958.171 0 .365.031.431.05v-.791a3.11 3.11 0 00-.351-.02c-.497 0-.922.283-1.077.739h-.044v-.675h-.798v4.252zM115.12 110.947c1.08 0 1.914-.495 1.914-1.589v-4.346h-.809v.689h-.061c-.146-.263-.439-.745-1.229-.745-1.024 0-1.778.812-1.778 2.165 0 1.357.77 2.079 1.773 2.079.778 0 1.079-.44 1.229-.711h.052v.836c0 .667-.456.955-1.083.955-.687 0-.955-.346-1.101-.59l-.71.294c.223.52.79.963 1.803.963zm-.008-2.433c-.737 0-1.121-.568-1.121-1.404 0-.816.375-1.45 1.121-1.45.721 0 1.107.589 1.107 1.45 0 .878-.395 1.404-1.107 1.404zM118.141 109.264h.826v-4.252h-.826v4.252zm.417-4.908c.285 0 .522-.222.522-.493s-.237-.496-.522-.496a.512.512 0 00-.522.496c0 .271.235.493.522.493zM120.904 106.739c0-.678.414-1.066.988-1.066.561 0 .901.369.901.986v2.605h.825v-2.705c0-1.052-.577-1.603-1.444-1.603-.638 0-1.055.297-1.251.748h-.052v-.692h-.793v4.252h.826v-2.525zM126.504 110.947c1.08 0 1.914-.495 1.914-1.589v-4.346h-.809v.689h-.061c-.146-.263-.439-.745-1.229-.745-1.024 0-1.778.812-1.778 2.165 0 1.357.77 2.079 1.773 2.079.778 0 1.079-.44 1.229-.711h.052v.836c0 .667-.456.955-1.082.955-.688 0-.956-.346-1.102-.59l-.71.294c.224.52.79.963 1.803.963zm-.008-2.433c-.737 0-1.121-.568-1.121-1.404 0-.816.375-1.45 1.121-1.45.721 0 1.107.589 1.107 1.45 0 .878-.395 1.404-1.107 1.404zM132.105 110.859c.683 0 1.113-.357 1.359-1.027l1.754-4.812-.892-.008-1.074 3.3h-.045l-1.074-3.3h-.884l1.552 4.307-.102.283c-.21.565-.505.612-.958.487l-.199.678c.1.045.315.092.563.092zM137.631 109.35c1.196 0 1.977-.878 1.977-2.193 0-1.323-.781-2.201-1.977-2.201-1.196 0-1.978.878-1.978 2.201 0 1.315.782 2.193 1.978 2.193zm.003-.695c-.782 0-1.147-.684-1.147-1.5 0-.814.365-1.506 1.147-1.506.776 0 1.14.692 1.14 1.506 0 .816-.364 1.5-1.14 1.5zM143.217 107.501c.003.722-.533 1.065-.997 1.065-.511 0-.864-.37-.864-.949v-2.605h-.826v2.705c0 1.054.577 1.602 1.392 1.602.638 0 1.071-.337 1.267-.791h.044v.736h.812v-4.252h-.828v2.489zM145.155 109.264h.826v-2.597c0-.556.428-.958 1.013-.958.171 0 .365.031.431.05v-.791a3.11 3.11 0 00-.351-.02c-.497 0-.922.283-1.077.739h-.044v-.675h-.798v4.252zM150.198 109.264h.825v-2.622c0-.573.401-.971.87-.971.459 0 .776.304.776.767v2.826h.823v-2.71c0-.512.312-.883.851-.883.436 0 .795.243.795.819v2.774h.826v-2.851c0-.972-.541-1.457-1.309-1.457-.611 0-1.069.294-1.273.748h-.045c-.185-.465-.574-.748-1.14-.748-.561 0-.978.28-1.154.748h-.053v-.692h-.792v4.252zM158.857 109.35c1.196 0 1.978-.878 1.978-2.193 0-1.323-.782-2.201-1.978-2.201s-1.977.878-1.977 2.201c0 1.315.781 2.193 1.977 2.193zm.003-.695c-.782 0-1.146-.684-1.146-1.5 0-.814.364-1.506 1.146-1.506.776 0 1.141.692 1.141 1.506 0 .816-.365 1.5-1.141 1.5zM164.935 106.05c-.171-.662-.688-1.094-1.605-1.094-.958 0-1.637.507-1.637 1.26 0 .604.364 1.005 1.16 1.182l.718.158c.408.091.599.274.599.54 0 .329-.351.587-.892.587-.494 0-.812-.213-.911-.631l-.799.121c.139.753.763 1.177 1.715 1.177 1.025 0 1.735-.545 1.735-1.315 0-.601-.381-.972-1.16-1.152l-.674-.155c-.467-.111-.668-.268-.666-.556-.002-.327.351-.559.821-.559.513 0 .751.285.847.57l.749-.133zM167.906 105.012h-.87v-1.019h-.826v1.019h-.621v.664h.621v2.511c-.003.773.586 1.146 1.237 1.132.263-.002.439-.052.536-.088l-.149-.684c-.055.011-.158.036-.29.036-.268 0-.508-.089-.508-.567v-2.34h.87v-.664zM171.703 103.594h-.826v5.67h.826v-5.67zM174.601 109.35c1.195 0 1.977-.878 1.977-2.193 0-1.323-.782-2.201-1.977-2.201-1.196 0-1.978.878-1.978 2.201 0 1.315.782 2.193 1.978 2.193zm.002-.695c-.781 0-1.146-.684-1.146-1.5 0-.814.365-1.506 1.146-1.506.776 0 1.141.692 1.141 1.506 0 .816-.365 1.5-1.141 1.5zM177.87 110.859c.682 0 1.113-.357 1.358-1.027l1.754-4.812-.892-.008-1.074 3.3h-.044l-1.075-3.3h-.883l1.552 4.307-.103.283c-.21.565-.505.612-.958.487l-.199.678c.1.045.315.092.564.092zM182.865 109.358c.702 0 1.097-.357 1.254-.675h.033v.581h.807v-2.824c0-1.237-.972-1.484-1.646-1.484-.768 0-1.475.31-1.751 1.086l.776.177c.121-.302.431-.593.986-.593.533 0 .806.28.806.762v.019c0 .302-.309.296-1.071.385-.804.094-1.627.304-1.627 1.271 0 .836.627 1.295 1.433 1.295zm.18-.664c-.467 0-.804-.211-.804-.62 0-.443.392-.601.87-.665.268-.036.903-.108 1.022-.227v.548c0 .504-.4.964-1.088.964zM186.884 103.594h-.825v5.67h.825v-5.67zM190.053 109.264h.826v-2.597c0-.556.428-.958 1.013-.958.172 0 .365.031.431.05v-.791a3.105 3.105 0 00-.35-.02c-.498 0-.923.283-1.078.739h-.044v-.675h-.798v4.252zM194.714 109.35c.925 0 1.58-.457 1.768-1.149l-.782-.141c-.149.401-.508.606-.978.606-.707 0-1.182-.459-1.204-1.279h3.016v-.293c0-1.537-.917-2.138-1.878-2.138-1.182 0-1.961.903-1.961 2.21 0 1.32.768 2.184 2.019 2.184zm-1.193-2.583c.033-.604.47-1.127 1.141-1.127.64 0 1.06.476 1.063 1.127h-2.204zM198.685 109.358c.701 0 1.096-.357 1.253-.675h.034v.581h.806v-2.824c0-1.237-.972-1.484-1.646-1.484-.768 0-1.475.31-1.751 1.086l.776.177c.122-.302.431-.593.986-.593.533 0 .806.28.806.762v.019c0 .302-.309.296-1.071.385-.804.094-1.627.304-1.627 1.271 0 .836.627 1.295 1.434 1.295zm.179-.664c-.467 0-.803-.211-.803-.62 0-.443.392-.601.869-.665.268-.036.903-.108 1.022-.227v.548c0 .504-.4.964-1.088.964zM203.466 109.347c.773 0 1.077-.473 1.226-.745h.069v.662h.806v-5.67h-.825v2.107h-.05c-.149-.263-.431-.745-1.221-.745-1.024 0-1.778.812-1.778 2.19 0 1.376.743 2.201 1.773 2.201zm.182-.706c-.737 0-1.121-.65-1.121-1.503 0-.844.375-1.478 1.121-1.478.721 0 1.107.589 1.107 1.478 0 .894-.395 1.503-1.107 1.503zM208.574 109.35c.925 0 1.58-.457 1.767-1.149l-.781-.141c-.149.401-.508.606-.978.606-.707 0-1.182-.459-1.204-1.279h3.016v-.293c0-1.537-.917-2.138-1.878-2.138-1.182 0-1.961.903-1.961 2.21 0 1.32.768 2.184 2.019 2.184zm-1.193-2.583c.033-.604.469-1.127 1.141-1.127.64 0 1.06.476 1.063 1.127h-2.204zM211.31 109.264h.826v-2.597c0-.556.428-.958 1.013-.958.172 0 .365.031.431.05v-.791a3.11 3.11 0 00-.351-.02c-.497 0-.922.283-1.077.739h-.044v-.675h-.798v4.252zM217.473 106.05c-.171-.662-.687-1.094-1.604-1.094-.958 0-1.638.507-1.638 1.26 0 .604.365 1.005 1.16 1.182l.718.158c.409.091.599.274.599.54 0 .329-.35.587-.892.587-.494 0-.812-.213-.911-.631l-.798.121c.138.753.762 1.177 1.715 1.177 1.024 0 1.734-.545 1.734-1.315 0-.601-.381-.972-1.16-1.152l-.674-.155c-.466-.111-.668-.268-.665-.556-.003-.327.351-.559.82-.559.514 0 .751.285.848.57l.748-.133zM221.757 109.358c.701 0 1.096-.357 1.253-.675h.033v.581h.807v-2.824c0-1.237-.972-1.484-1.646-1.484-.768 0-1.475.31-1.751 1.086l.776.177c.122-.302.431-.593.986-.593.533 0 .806.28.806.762v.019c0 .302-.309.296-1.071.385-.804.094-1.627.304-1.627 1.271 0 .836.627 1.295 1.434 1.295zm.179-.664c-.467 0-.804-.211-.804-.62 0-.443.393-.601.87-.665.268-.036.903-.108 1.022-.227v.548c0 .504-.4.964-1.088.964zM225.775 106.739c0-.678.415-1.066.989-1.066.561 0 .9.369.9.986v2.605h.826v-2.705c0-1.052-.577-1.603-1.444-1.603-.638 0-1.055.297-1.251.748h-.053v-.692h-.792v4.252h.825v-2.525zM231.185 109.347c.774 0 1.077-.473 1.227-.745h.069v.662h.806v-5.67h-.826v2.107h-.049c-.15-.263-.431-.745-1.221-.745-1.025 0-1.779.812-1.779 2.19 0 1.376.743 2.201 1.773 2.201zm.183-.706c-.738 0-1.122-.65-1.122-1.503 0-.844.376-1.478 1.122-1.478.72 0 1.107.589 1.107 1.478 0 .894-.395 1.503-1.107 1.503zM236.524 109.264h.825v-2.597c0-.556.428-.958 1.014-.958.171 0 .364.031.431.05v-.791a3.11 3.11 0 00-.351-.02c-.497 0-.922.283-1.077.739h-.044v-.675h-.798v4.252zM241.185 109.35c.925 0 1.579-.457 1.767-1.149l-.782-.141c-.149.401-.508.606-.977.606-.707 0-1.182-.459-1.204-1.279h3.015v-.293c0-1.537-.916-2.138-1.877-2.138-1.182 0-1.961.903-1.961 2.21 0 1.32.768 2.184 2.019 2.184zm-1.193-2.583c.033-.604.469-1.127 1.14-1.127.641 0 1.061.476 1.063 1.127h-2.203zM244.833 109.264h.839l.862-3.07h.063l.862 3.07h.842l1.246-4.252h-.854l-.825 3.109h-.042l-.828-3.109h-.854l-.834 3.123h-.041l-.831-3.123h-.854l1.249 4.252zM251.565 109.358c.701 0 1.096-.357 1.254-.675h.033v.581h.806v-2.824c0-1.237-.972-1.484-1.646-1.484-.768 0-1.475.31-1.751 1.086l.776.177c.122-.302.431-.593.986-.593.533 0 .807.28.807.762v.019c0 .302-.31.296-1.072.385-.804.094-1.626.304-1.626 1.271 0 .836.626 1.295 1.433 1.295zm.179-.664c-.466 0-.803-.211-.803-.62 0-.443.392-.601.87-.665.267-.036.903-.108 1.021-.227v.548c0 .504-.4.964-1.088.964zM254.758 109.264h.826v-2.597c0-.556.428-.958 1.013-.958.171 0 .365.031.431.05v-.791a3.11 3.11 0 00-.351-.02c-.497 0-.922.283-1.077.739h-.044v-.675h-.798v4.252zM259.179 109.347c.773 0 1.077-.473 1.226-.745h.069v.662h.806v-5.67h-.826v2.107h-.049c-.149-.263-.431-.745-1.221-.745-1.024 0-1.778.812-1.778 2.19 0 1.376.742 2.201 1.773 2.201zm.182-.706c-.737 0-1.121-.65-1.121-1.503 0-.844.375-1.478 1.121-1.478.721 0 1.107.589 1.107 1.478 0 .894-.395 1.503-1.107 1.503zM266.497 105.012h-.87v-1.019h-.826v1.019h-.621v.664h.621v2.511c-.003.773.586 1.146 1.237 1.132.263-.002.44-.052.536-.088l-.149-.684c-.055.011-.157.036-.29.036-.268 0-.508-.089-.508-.567v-2.34h.87v-.664zM268.327 106.739c0-.678.428-1.066 1.016-1.066.569 0 .909.363.909.986v2.605h.826v-2.705c0-1.06-.58-1.603-1.453-1.603-.66 0-1.058.288-1.256.748h-.053v-2.11h-.815v5.67h.826v-2.525zM274.008 109.35c.925 0 1.579-.457 1.767-1.149l-.781-.141c-.149.401-.508.606-.978.606-.707 0-1.182-.459-1.204-1.279h3.016v-.293c0-1.537-.917-2.138-1.878-2.138-1.182 0-1.961.903-1.961 2.21 0 1.32.768 2.184 2.019 2.184zm-1.193-2.583c.033-.604.469-1.127 1.14-1.127.641 0 1.061.476 1.064 1.127h-2.204zM276.744 109.264h.826v-2.622c0-.573.4-.971.869-.971.459 0 .777.304.777.767v2.826h.822v-2.71c0-.512.313-.883.851-.883.436 0 .795.243.795.819v2.774h.826v-2.851c0-.972-.541-1.457-1.309-1.457-.61 0-1.069.294-1.273.748h-.044c-.185-.465-.575-.748-1.141-.748-.56 0-.977.28-1.154.748h-.053v-.692h-.792v4.252zM286.501 103.594h-.826v5.67h.826v-5.67zM289.398 109.35c1.196 0 1.978-.878 1.978-2.193 0-1.323-.782-2.201-1.978-2.201s-1.977.878-1.977 2.201c0 1.315.781 2.193 1.977 2.193zm.003-.695c-.781 0-1.146-.684-1.146-1.5 0-.814.365-1.506 1.146-1.506.776 0 1.141.692 1.141 1.506 0 .816-.365 1.5-1.141 1.5zM292.667 110.859c.682 0 1.113-.357 1.359-1.027l1.754-4.812-.892-.008-1.075 3.3h-.044l-1.074-3.3h-.884l1.552 4.307-.102.283c-.21.565-.505.612-.958.487l-.199.678c.099.045.315.092.563.092zM297.663 109.358c.702 0 1.096-.357 1.254-.675h.033v.581h.806v-2.824c0-1.237-.972-1.484-1.645-1.484-.768 0-1.475.31-1.751 1.086l.776.177c.121-.302.43-.593.986-.593.533 0 .806.28.806.762v.019c0 .302-.309.296-1.072.385-.803.094-1.626.304-1.626 1.271 0 .836.627 1.295 1.433 1.295zm.18-.664c-.467 0-.804-.211-.804-.62 0-.443.392-.601.87-.665.268-.036.903-.108 1.022-.227v.548c0 .504-.401.964-1.088.964zM301.682 103.594h-.826v5.67h.826v-5.67zM304.773 105.012h-.87v-1.019h-.826v1.019h-.621v.664h.621v2.511c-.002.773.586 1.146 1.237 1.132.263-.002.44-.052.536-.088l-.149-.684c-.055.011-.157.036-.29.036-.268 0-.508-.089-.508-.567v-2.34h.87v-.664zM306.208 110.859c.682 0 1.113-.357 1.359-1.027l1.754-4.812-.892-.008-1.075 3.3h-.044l-1.074-3.3h-.884l1.552 4.307-.102.283c-.21.565-.505.612-.958.487l-.199.678c.099.045.315.092.563.092zM312.157 110.859h.826v-2.257h.049c.149.272.453.745 1.226.745 1.028 0 1.773-.825 1.773-2.201 0-1.378-.756-2.19-1.781-2.19-.787 0-1.071.482-1.218.745h-.069v-.689h-.806v5.847zm.809-3.721c0-.889.387-1.478 1.107-1.478.749 0 1.124.634 1.124 1.478 0 .853-.386 1.503-1.124 1.503-.709 0-1.107-.609-1.107-1.503zM318.743 109.35c1.196 0 1.978-.878 1.978-2.193 0-1.323-.782-2.201-1.978-2.201s-1.977.878-1.977 2.201c0 1.315.781 2.193 1.977 2.193zm.003-.695c-.782 0-1.146-.684-1.146-1.5 0-.814.364-1.506 1.146-1.506.776 0 1.141.692 1.141 1.506 0 .816-.365 1.5-1.141 1.5zM321.642 109.264h.826v-4.252h-.826v4.252zm.417-4.908c.285 0 .522-.222.522-.493s-.237-.496-.522-.496a.512.512 0 00-.522.496c0 .271.235.493.522.493zM324.405 106.739c0-.678.414-1.066.988-1.066.561 0 .901.369.901.986v2.605h.825v-2.705c0-1.052-.577-1.603-1.444-1.603-.638 0-1.055.297-1.251.748h-.053v-.692h-.792v4.252h.826v-2.525zM330.207 105.012h-.87v-1.019h-.826v1.019h-.621v.664h.621v2.511c-.003.773.586 1.146 1.237 1.132.263-.002.439-.052.536-.088l-.149-.684c-.055.011-.158.036-.29.036-.268 0-.508-.089-.508-.567v-2.34h.87v-.664zM334.23 106.05c-.171-.662-.687-1.094-1.604-1.094-.958 0-1.638.507-1.638 1.26 0 .604.365 1.005 1.16 1.182l.718.158c.409.091.599.274.599.54 0 .329-.35.587-.892.587-.494 0-.811-.213-.911-.631l-.798.121c.138.753.762 1.177 1.715 1.177 1.024 0 1.734-.545 1.734-1.315 0-.601-.381-.972-1.16-1.152l-.673-.155c-.467-.111-.669-.268-.666-.556-.003-.327.351-.559.82-.559.514 0 .751.285.848.57l.748-.133zM335.765 109.317a.556.556 0 00.553-.554.556.556 0 00-.553-.551.554.554 0 000 1.105zM343.284 105.386h.876c-.191-1.105-1.132-1.869-2.353-1.869-1.464 0-2.532 1.104-2.532 2.915 0 1.794 1.038 2.91 2.571 2.91 1.372 0 2.352-.903 2.352-2.334v-.645h-2.223v.706h1.398c-.02.913-.622 1.492-1.527 1.492-.997 0-1.724-.756-1.724-2.135 0-1.373.732-2.128 1.69-2.128.752 0 1.26.415 1.472 1.088zM345.481 109.264h.826v-4.252h-.826v4.252zm.417-4.908c.285 0 .522-.222.522-.493s-.237-.496-.522-.496a.512.512 0 00-.522.496c0 .271.235.493.522.493zM351.047 105.012h-.887l-1.071 3.272h-.045l-1.074-3.272h-.886l1.541 4.252h.883l1.539-4.252zM353.499 109.35c.925 0 1.58-.457 1.767-1.149l-.781-.141c-.149.401-.508.606-.978.606-.707 0-1.182-.459-1.204-1.279h3.016v-.293c0-1.537-.917-2.138-1.878-2.138-1.182 0-1.961.903-1.961 2.21 0 1.32.768 2.184 2.019 2.184zm-1.193-2.583c.033-.604.469-1.127 1.14-1.127.641 0 1.061.476 1.064 1.127h-2.204zM358.359 109.264h.807v-.662h.069c.149.272.453.745 1.226.745 1.027 0 1.773-.825 1.773-2.201 0-1.378-.757-2.19-1.781-2.19-.787 0-1.072.482-1.218.745h-.05v-2.107h-.826v5.67zm.809-2.126c0-.889.387-1.478 1.108-1.478.748 0 1.124.634 1.124 1.478 0 .853-.387 1.503-1.124 1.503-.71 0-1.108-.609-1.108-1.503zM364.396 109.358c.701 0 1.096-.357 1.253-.675h.033v.581h.807v-2.824c0-1.237-.972-1.484-1.646-1.484-.768 0-1.475.31-1.751 1.086l.776.177c.122-.302.431-.593.986-.593.533 0 .806.28.806.762v.019c0 .302-.309.296-1.071.385-.804.094-1.627.304-1.627 1.271 0 .836.627 1.295 1.434 1.295zm.179-.664c-.467 0-.804-.211-.804-.62 0-.443.393-.601.87-.665.268-.036.903-.108 1.022-.227v.548c0 .504-.4.964-1.088.964zM369.375 109.35c1.003 0 1.652-.604 1.743-1.431h-.804c-.105.459-.461.731-.933.731-.699 0-1.149-.585-1.149-1.512 0-.911.459-1.484 1.149-1.484.525 0 .845.332.933.731h.804c-.088-.858-.787-1.429-1.751-1.429-1.196 0-1.969.903-1.969 2.201 0 1.282.746 2.193 1.977 2.193zM372.001 109.264h.826v-1.509l.411-.412 1.442 1.921h1.013l-1.833-2.428 1.717-1.824h-.988l-1.69 1.799h-.072v-3.217h-.826v5.67zM380.368 105.012h-.87v-1.019h-.826v1.019h-.621v.664h.621v2.511c-.002.773.586 1.146 1.238 1.132.262-.002.439-.052.535-.088l-.149-.684c-.055.011-.157.036-.29.036-.268 0-.508-.089-.508-.567v-2.34h.87v-.664zM383.023 109.35c1.195 0 1.977-.878 1.977-2.193 0-1.323-.782-2.201-1.977-2.201-1.196 0-1.978.878-1.978 2.201 0 1.315.782 2.193 1.978 2.193zm.002-.695c-.781 0-1.146-.684-1.146-1.5 0-.814.365-1.506 1.146-1.506.776 0 1.141.692 1.141 1.506 0 .816-.365 1.5-1.141 1.5zM40.843 122.553c.682 0 1.113-.357 1.359-1.027l1.753-4.812-.892-.008-1.074 3.3h-.044l-1.074-3.3h-.884l1.552 4.307-.102.283c-.21.565-.506.612-.959.487l-.198.678c.099.045.314.092.563.092zM46.368 121.044c1.196 0 1.978-.878 1.978-2.193 0-1.323-.782-2.201-1.978-2.201s-1.977.878-1.977 2.201c0 1.315.782 2.193 1.977 2.193zm.003-.695c-.782 0-1.146-.684-1.146-1.501 0-.813.364-1.506 1.146-1.506.776 0 1.14.693 1.14 1.506 0 .817-.364 1.501-1.14 1.501zM51.954 119.195c.003.722-.533 1.065-.997 1.065-.51 0-.864-.371-.864-.949v-2.605h-.826v2.704c0 1.055.577 1.603 1.392 1.603.638 0 1.072-.337 1.268-.791h.044v.736h.812v-4.252h-.829v2.489zM53.892 120.958h.826v-2.597c0-.556.428-.958 1.013-.958.172 0 .365.031.431.05v-.792a3.37 3.37 0 00-.35-.019c-.497 0-.923.282-1.077.739h-.045v-.675h-.798v4.252zM59.76 115.288h-.825v5.67h.826v-5.67zM62.658 121.044c1.196 0 1.978-.878 1.978-2.193 0-1.323-.782-2.201-1.978-2.201-1.195 0-1.977.878-1.977 2.201 0 1.315.782 2.193 1.977 2.193zm.003-.695c-.781 0-1.146-.684-1.146-1.501 0-.813.365-1.506 1.146-1.506.776 0 1.14.693 1.14 1.506 0 .817-.364 1.501-1.14 1.501zM65.927 122.553c.682 0 1.113-.357 1.36-1.027l1.753-4.812-.892-.008-1.075 3.3h-.044l-1.074-3.3h-.884l1.552 4.307-.102.283c-.21.565-.505.612-.958.487l-.199.678c.1.045.315.092.563.092zM70.923 121.052c.702 0 1.097-.357 1.254-.675h.033v.581h.806v-2.824c0-1.237-.972-1.484-1.645-1.484-.768 0-1.475.31-1.751 1.086l.776.177c.121-.302.43-.593.986-.593.533 0 .806.28.806.762v.019c0 .302-.31.296-1.072.385-.803.094-1.626.304-1.626 1.271 0 .836.627 1.295 1.433 1.295zm.18-.664c-.467 0-.804-.211-.804-.62 0-.443.392-.601.87-.665.268-.036.903-.108 1.022-.227v.548c0 .504-.4.964-1.088.964zM74.942 115.288h-.826v5.67h.826v-5.67zM78.111 120.958h.826v-2.597c0-.556.428-.958 1.013-.958.171 0 .365.031.431.05v-.792a3.373 3.373 0 00-.35-.019c-.498 0-.923.282-1.078.739h-.044v-.675h-.798v4.252zM82.772 121.044c.925 0 1.58-.457 1.767-1.149l-.781-.141c-.15.401-.508.606-.978.606-.707 0-1.182-.46-1.204-1.279h3.016v-.293c0-1.537-.917-2.138-1.878-2.138-1.182 0-1.96.903-1.96 2.21 0 1.32.767 2.184 2.018 2.184zm-1.193-2.583c.033-.604.47-1.127 1.14-1.127.641 0 1.06.476 1.064 1.127h-2.204zM86.742 121.052c.702 0 1.097-.357 1.254-.675h.033v.581h.807v-2.824c0-1.237-.972-1.484-1.646-1.484-.768 0-1.475.31-1.751 1.086l.776.177c.121-.302.43-.593.986-.593.533 0 .806.28.806.762v.019c0 .302-.309.296-1.071.385-.804.094-1.627.304-1.627 1.271 0 .836.627 1.295 1.433 1.295zm.18-.664c-.467 0-.804-.211-.804-.62 0-.443.392-.601.87-.665.268-.036.903-.108 1.022-.227v.548c0 .504-.4.964-1.088.964zM91.523 121.041c.774 0 1.078-.473 1.227-.745h.069v.662h.806v-5.67H92.8v2.107h-.05c-.148-.263-.43-.745-1.22-.745-1.025 0-1.778.811-1.778 2.19 0 1.376.742 2.201 1.772 2.201zm.183-.706c-.738 0-1.121-.65-1.121-1.503 0-.845.375-1.478 1.12-1.478.722 0 1.108.589 1.108 1.478 0 .894-.395 1.503-1.107 1.503zM96.632 121.044c.925 0 1.58-.457 1.767-1.149l-.781-.141c-.15.401-.508.606-.978.606-.707 0-1.182-.46-1.204-1.279h3.016v-.293c0-1.537-.917-2.138-1.878-2.138-1.182 0-1.96.903-1.96 2.21 0 1.32.767 2.184 2.018 2.184zm-1.193-2.583c.033-.604.47-1.127 1.14-1.127.641 0 1.06.476 1.064 1.127h-2.204zM99.368 120.958h.826v-2.597c0-.556.428-.958 1.013-.958.171 0 .365.031.431.05v-.792a3.379 3.379 0 00-.351-.019c-.497 0-.922.282-1.077.739h-.044v-.675h-.798v4.252zM105.531 117.744c-.171-.662-.688-1.094-1.604-1.094-.959 0-1.638.507-1.638 1.26 0 .603.364 1.005 1.16 1.182l.718.158c.409.091.599.274.599.54 0 .329-.351.587-.892.587-.494 0-.812-.214-.911-.632l-.798.122c.138.753.762 1.177 1.715 1.177 1.024 0 1.734-.546 1.734-1.315 0-.601-.381-.972-1.16-1.152l-.674-.155c-.466-.111-.668-.268-.665-.556-.003-.327.35-.56.82-.56.514 0 .751.286.848.571l.748-.133zM108.646 120.958h.807v-.662h.069c.149.272.453.745 1.226.745 1.027 0 1.773-.825 1.773-2.201 0-1.379-.757-2.19-1.781-2.19-.788 0-1.072.482-1.218.745h-.05v-2.107h-.826v5.67zm.809-2.126c0-.889.387-1.478 1.108-1.478.748 0 1.124.633 1.124 1.478 0 .853-.387 1.503-1.124 1.503-.71 0-1.108-.609-1.108-1.503zM113.818 122.553c.682 0 1.113-.357 1.359-1.027l1.753-4.812-.892-.008-1.074 3.3h-.044l-1.074-3.3h-.884l1.552 4.307-.102.283c-.21.565-.506.612-.959.487l-.198.678c.099.045.314.092.563.092zM121.545 122.641c1.08 0 1.914-.495 1.914-1.589v-4.346h-.809v.689h-.061c-.146-.263-.439-.745-1.229-.745-1.025 0-1.778.811-1.778 2.165 0 1.357.77 2.079 1.772 2.079.779 0 1.08-.44 1.229-.711h.053v.836c0 .667-.456.955-1.083.955-.687 0-.955-.346-1.102-.59l-.709.294c.223.52.79.963 1.803.963zm-.008-2.433c-.738 0-1.121-.568-1.121-1.404 0-.817.375-1.45 1.121-1.45.721 0 1.107.589 1.107 1.45 0 .878-.395 1.404-1.107 1.404zM124.566 120.958h.826v-2.597c0-.556.428-.958 1.013-.958.172 0 .365.031.431.05v-.792a3.359 3.359 0 00-.35-.019c-.498 0-.923.282-1.077.739h-.045v-.675h-.798v4.252zM128.747 121.052c.702 0 1.097-.357 1.254-.675h.033v.581h.807v-2.824c0-1.237-.972-1.484-1.646-1.484-.768 0-1.475.31-1.751 1.086l.776.177c.121-.302.431-.593.986-.593.533 0 .806.28.806.762v.019c0 .302-.309.296-1.071.385-.804.094-1.627.304-1.627 1.271 0 .836.627 1.295 1.433 1.295zm.18-.664c-.467 0-.804-.211-.804-.62 0-.443.392-.601.87-.665.268-.036.903-.108 1.022-.227v.548c0 .504-.401.964-1.088.964zM132.766 118.433c0-.678.414-1.066.989-1.066.56 0 .9.369.9.986v2.605h.826v-2.705c0-1.052-.577-1.603-1.444-1.603-.638 0-1.055.297-1.251.748h-.053v-.692h-.793v4.252h.826v-2.525zM138.568 116.706h-.87v-1.019h-.825v1.019h-.622v.664h.622v2.511c-.003.772.585 1.146 1.237 1.132.262-.002.439-.052.536-.088l-.149-.684c-.056.011-.158.036-.29.036-.268 0-.509-.089-.509-.568v-2.339h.87v-.664zM139.482 120.958h.825v-4.252h-.825v4.252zm.417-4.908c.284 0 .522-.222.522-.493 0-.272-.238-.496-.522-.496a.512.512 0 00-.522.496c0 .271.235.493.522.493zM142.244 118.433c0-.678.414-1.066.989-1.066.56 0 .9.369.9.986v2.605h.826v-2.705c0-1.052-.577-1.603-1.445-1.603-.638 0-1.055.297-1.251.748h-.052v-.692h-.793v4.252h.826v-2.525zM147.845 122.641c1.079 0 1.913-.495 1.913-1.589v-4.346h-.809v.689h-.06c-.147-.263-.44-.745-1.229-.745-1.025 0-1.779.811-1.779 2.165 0 1.357.771 2.079 1.773 2.079.779 0 1.08-.44 1.229-.711h.052v.836c0 .667-.455.955-1.082.955-.688 0-.956-.346-1.102-.59l-.71.294c.224.52.79.963 1.804.963zm-.009-2.433c-.737 0-1.121-.568-1.121-1.404 0-.817.376-1.45 1.121-1.45.721 0 1.108.589 1.108 1.45 0 .878-.395 1.404-1.108 1.404zM154.904 116.706h-.87v-1.019h-.826v1.019h-.621v.664h.621v2.511c-.002.772.586 1.146 1.238 1.132.262-.002.439-.052.535-.088l-.149-.684c-.055.011-.157.036-.29.036-.268 0-.508-.089-.508-.568v-2.339h.87v-.664zM156.734 118.433c0-.678.428-1.066 1.017-1.066.568 0 .908.363.908.986v2.605h.826v-2.705c0-1.06-.58-1.603-1.453-1.603-.66 0-1.057.288-1.256.748h-.053v-2.11h-.814v5.67h.825v-2.525zM162.415 121.044c.925 0 1.58-.457 1.767-1.149l-.781-.141c-.149.401-.508.606-.978.606-.707 0-1.182-.46-1.204-1.279h3.016v-.293c0-1.537-.917-2.138-1.878-2.138-1.182 0-1.961.903-1.961 2.21 0 1.32.768 2.184 2.019 2.184zm-1.193-2.583c.033-.604.469-1.127 1.14-1.127.641 0 1.061.476 1.064 1.127h-2.204zM165.151 120.958h.826v-2.622c0-.573.4-.971.87-.971.458 0 .776.304.776.766v2.827h.823v-2.71c0-.512.312-.883.85-.883.437 0 .796.243.796.819v2.774h.825v-2.851c0-.972-.541-1.457-1.309-1.457-.61 0-1.069.294-1.273.748h-.044c-.185-.465-.574-.748-1.141-.748-.56 0-.977.28-1.154.748h-.052v-.692h-.793v4.252zM175.317 121.052c.701 0 1.096-.357 1.253-.675h.033v.581h.807v-2.824c0-1.237-.972-1.484-1.646-1.484-.768 0-1.475.31-1.751 1.086l.776.177c.122-.302.431-.593.986-.593.533 0 .806.28.806.762v.019c0 .302-.309.296-1.071.385-.804.094-1.627.304-1.627 1.271 0 .836.627 1.295 1.434 1.295zm.179-.664c-.467 0-.804-.211-.804-.62 0-.443.393-.601.87-.665.268-.036.903-.108 1.022-.227v.548c0 .504-.4.964-1.088.964zM180.296 121.044c1.003 0 1.652-.604 1.743-1.431h-.804c-.105.459-.461.73-.933.73-.699 0-1.149-.584-1.149-1.511 0-.911.459-1.484 1.149-1.484.525 0 .845.332.933.731h.804c-.088-.858-.787-1.429-1.751-1.429-1.196 0-1.969.903-1.969 2.201 0 1.282.746 2.193 1.977 2.193zM184.709 121.044c1.002 0 1.651-.604 1.742-1.431h-.803c-.105.459-.461.73-.934.73-.698 0-1.149-.584-1.149-1.511 0-.911.459-1.484 1.149-1.484.525 0 .845.332.934.731h.803c-.088-.858-.787-1.429-1.75-1.429-1.196 0-1.97.903-1.97 2.201 0 1.282.746 2.193 1.978 2.193zM189.163 121.044c.925 0 1.579-.457 1.767-1.149l-.782-.141c-.149.401-.508.606-.977.606-.707 0-1.182-.46-1.204-1.279h3.015v-.293c0-1.537-.916-2.138-1.877-2.138-1.182 0-1.961.903-1.961 2.21 0 1.32.768 2.184 2.019 2.184zm-1.193-2.583c.033-.604.469-1.127 1.14-1.127.641 0 1.061.476 1.063 1.127h-2.203zM195.077 117.744c-.171-.662-.687-1.094-1.604-1.094-.959 0-1.638.507-1.638 1.26 0 .603.365 1.005 1.16 1.182l.718.158c.409.091.599.274.599.54 0 .329-.35.587-.892.587-.494 0-.812-.214-.911-.632l-.798.122c.138.753.762 1.177 1.715 1.177 1.024 0 1.734-.546 1.734-1.315 0-.601-.381-.972-1.16-1.152l-.674-.155c-.466-.111-.668-.268-.665-.556-.003-.327.351-.56.82-.56.514 0 .751.286.848.571l.748-.133zM199.247 117.744c-.172-.662-.688-1.094-1.605-1.094-.958 0-1.638.507-1.638 1.26 0 .603.365 1.005 1.16 1.182l.718.158c.409.091.6.274.6.54 0 .329-.351.587-.892.587-.495 0-.812-.214-.912-.632l-.798.122c.138.753.762 1.177 1.715 1.177 1.025 0 1.734-.546 1.734-1.315 0-.601-.381-.972-1.159-1.152l-.674-.155c-.467-.111-.669-.268-.666-.556-.003-.327.351-.56.82-.56.514 0 .752.286.848.571l.749-.133zM204.276 116.706h-.87v-1.019h-.826v1.019h-.621v.664h.621v2.511c-.003.772.585 1.146 1.237 1.132.262-.002.439-.052.536-.088l-.149-.684c-.056.011-.158.036-.29.036-.268 0-.508-.089-.508-.568v-2.339h.87v-.664zM206.93 121.044c1.196 0 1.977-.878 1.977-2.193 0-1.323-.781-2.201-1.977-2.201-1.196 0-1.977.878-1.977 2.201 0 1.315.781 2.193 1.977 2.193zm.003-.695c-.782 0-1.146-.684-1.146-1.501 0-.813.364-1.506 1.146-1.506.776 0 1.14.693 1.14 1.506 0 .817-.364 1.501-1.14 1.501zM212.409 122.553c.682 0 1.113-.357 1.359-1.027l1.754-4.812-.892-.008-1.075 3.3h-.044l-1.074-3.3h-.884l1.552 4.307-.102.283c-.21.565-.505.612-.958.487l-.199.678c.099.045.315.092.563.092zM217.934 121.044c1.196 0 1.978-.878 1.978-2.193 0-1.323-.782-2.201-1.978-2.201-1.195 0-1.977.878-1.977 2.201 0 1.315.782 2.193 1.977 2.193zm.003-.695c-.781 0-1.146-.684-1.146-1.501 0-.813.365-1.506 1.146-1.506.776 0 1.141.693 1.141 1.506 0 .817-.365 1.501-1.141 1.501zM223.521 119.195c.002.722-.533 1.065-.997 1.065-.511 0-.865-.371-.865-.949v-2.605h-.825v2.704c0 1.055.577 1.603 1.391 1.603.638 0 1.072-.337 1.268-.791h.044v.736h.812v-4.252h-.828v2.489zM225.459 120.958h.825v-2.597c0-.556.428-.958 1.014-.958.171 0 .364.031.431.05v-.792a3.379 3.379 0 00-.351-.019c-.497 0-.923.282-1.077.739h-.044v-.675h-.798v4.252zM230.501 122.553h.826v-2.257h.05c.149.272.453.745 1.226.745 1.027 0 1.773-.825 1.773-2.201 0-1.379-.757-2.19-1.781-2.19-.788 0-1.072.482-1.218.745h-.069v-.689h-.807v5.847zm.809-3.721c0-.889.387-1.478 1.108-1.478.748 0 1.124.633 1.124 1.478 0 .853-.387 1.503-1.124 1.503-.71 0-1.108-.609-1.108-1.503zM235.301 120.958h.826v-2.597c0-.556.428-.958 1.013-.958.171 0 .365.031.431.05v-.792a3.379 3.379 0 00-.351-.019c-.497 0-.922.282-1.077.739h-.044v-.675h-.798v4.252zM239.962 121.044c.925 0 1.58-.457 1.767-1.149l-.781-.141c-.149.401-.508.606-.978.606-.707 0-1.182-.46-1.204-1.279h3.016v-.293c0-1.537-.917-2.138-1.878-2.138-1.182 0-1.961.903-1.961 2.21 0 1.32.768 2.184 2.019 2.184zm-1.193-2.583c.033-.604.469-1.127 1.14-1.127.641 0 1.061.476 1.064 1.127h-2.204zM245.197 118.203h-2.507v.717h2.507v-.717zM246.298 120.958h.825v-2.597c0-.556.428-.958 1.014-.958.171 0 .364.031.431.05v-.792a3.379 3.379 0 00-.351-.019c-.497 0-.922.282-1.077.739h-.044v-.675h-.798v4.252zM250.959 121.044c.925 0 1.579-.457 1.767-1.149l-.781-.141c-.15.401-.509.606-.978.606-.707 0-1.182-.46-1.204-1.279h3.016v-.293c0-1.537-.917-2.138-1.878-2.138-1.182 0-1.961.903-1.961 2.21 0 1.32.768 2.184 2.019 2.184zm-1.193-2.583c.033-.604.469-1.127 1.14-1.127.641 0 1.061.476 1.063 1.127h-2.203zM254.52 115.288h-.825v5.67h.825v-5.67zM257.459 121.044c.926 0 1.58-.457 1.768-1.149l-.782-.141c-.149.401-.508.606-.977.606-.707 0-1.182-.46-1.204-1.279h3.015v-.293c0-1.537-.916-2.138-1.878-2.138-1.181 0-1.96.903-1.96 2.21 0 1.32.767 2.184 2.018 2.184zm-1.193-2.583c.034-.604.47-1.127 1.141-1.127.641 0 1.06.476 1.063 1.127h-2.204zM261.43 121.052c.701 0 1.096-.357 1.254-.675h.033v.581h.806v-2.824c0-1.237-.972-1.484-1.646-1.484-.767 0-1.474.31-1.751 1.086l.777.177c.121-.302.43-.593.985-.593.533 0 .807.28.807.762v.019c0 .302-.31.296-1.072.385-.803.094-1.626.304-1.626 1.271 0 .836.627 1.295 1.433 1.295zm.179-.664c-.466 0-.803-.211-.803-.62 0-.443.392-.601.87-.665.268-.036.903-.108 1.022-.227v.548c0 .504-.401.964-1.089.964zM267.802 117.744c-.171-.662-.688-1.094-1.605-1.094-.958 0-1.637.507-1.637 1.26 0 .603.364 1.005 1.159 1.182l.719.158c.408.091.599.274.599.54 0 .329-.351.587-.892.587-.495 0-.812-.214-.912-.632l-.798.122c.138.753.763 1.177 1.715 1.177 1.025 0 1.735-.546 1.735-1.315 0-.601-.382-.972-1.16-1.152l-.674-.155c-.467-.111-.668-.268-.666-.556-.002-.327.351-.56.821-.56.513 0 .751.286.847.571l.749-.133zM270.621 121.044c.925 0 1.579-.457 1.767-1.149l-.781-.141c-.15.401-.509.606-.978.606-.707 0-1.182-.46-1.204-1.279h3.016v-.293c0-1.537-.917-2.138-1.878-2.138-1.182 0-1.961.903-1.961 2.21 0 1.32.768 2.184 2.019 2.184zm-1.193-2.583c.033-.604.469-1.127 1.14-1.127.641 0 1.061.476 1.063 1.127h-2.203zM276.535 117.744c-.171-.662-.687-1.094-1.604-1.094-.958 0-1.638.507-1.638 1.26 0 .603.365 1.005 1.16 1.182l.718.158c.409.091.599.274.599.54 0 .329-.35.587-.892.587-.494 0-.812-.214-.911-.632l-.798.122c.138.753.762 1.177 1.715 1.177 1.024 0 1.734-.546 1.734-1.315 0-.601-.381-.972-1.16-1.152l-.674-.155c-.466-.111-.668-.268-.665-.556-.003-.327.351-.56.82-.56.514 0 .751.286.848.571l.748-.133zM280.819 121.052c.701 0 1.096-.357 1.253-.675h.034v.581h.806v-2.824c0-1.237-.972-1.484-1.646-1.484-.768 0-1.475.31-1.751 1.086l.776.177c.122-.302.431-.593.986-.593.533 0 .806.28.806.762v.019c0 .302-.309.296-1.071.385-.804.094-1.627.304-1.627 1.271 0 .836.627 1.295 1.434 1.295zm.179-.664c-.467 0-.804-.211-.804-.62 0-.443.393-.601.87-.665.268-.036.903-.108 1.022-.227v.548c0 .504-.4.964-1.088.964zM284.837 118.433c0-.678.415-1.066.989-1.066.561 0 .9.369.9.986v2.605h.826v-2.705c0-1.052-.577-1.603-1.444-1.603-.638 0-1.055.297-1.251.748h-.053v-.692h-.792v4.252h.825v-2.525zM290.247 121.041c.774 0 1.077-.473 1.227-.745h.069v.662h.806v-5.67h-.826v2.107h-.049c-.15-.263-.431-.745-1.221-.745-1.025 0-1.778.811-1.778 2.19 0 1.376.742 2.201 1.772 2.201zm.183-.706c-.738 0-1.121-.65-1.121-1.503 0-.845.375-1.478 1.121-1.478.721 0 1.107.589 1.107 1.478 0 .894-.395 1.503-1.107 1.503zM298.764 117.744c-.171-.662-.687-1.094-1.604-1.094-.958 0-1.638.507-1.638 1.26 0 .603.365 1.005 1.16 1.182l.718.158c.409.091.599.274.599.54 0 .329-.35.587-.892.587-.494 0-.812-.214-.911-.632l-.798.122c.138.753.762 1.177 1.715 1.177 1.024 0 1.734-.546 1.734-1.315 0-.601-.381-.972-1.16-1.152l-.674-.155c-.466-.111-.668-.268-.665-.556-.003-.327.351-.56.82-.56.514 0 .751.286.848.571l.748-.133zM300.581 118.433c0-.678.414-1.066.988-1.066.561 0 .901.369.901.986v2.605h.825v-2.705c0-1.052-.577-1.603-1.444-1.603-.638 0-1.055.297-1.251.748h-.052v-.692h-.793v4.252h.826v-2.525zM306.231 121.044c.925 0 1.58-.457 1.767-1.149l-.781-.141c-.149.401-.508.606-.978.606-.707 0-1.182-.46-1.204-1.279h3.016v-.293c0-1.537-.917-2.138-1.878-2.138-1.182 0-1.961.903-1.961 2.21 0 1.32.768 2.184 2.019 2.184zm-1.193-2.583c.033-.604.469-1.127 1.141-1.127.64 0 1.06.476 1.063 1.127h-2.204zM310.202 121.052c.701 0 1.096-.357 1.253-.675h.033v.581h.807v-2.824c0-1.237-.972-1.484-1.646-1.484-.768 0-1.475.31-1.751 1.086l.776.177c.122-.302.431-.593.986-.593.533 0 .806.28.806.762v.019c0 .302-.309.296-1.071.385-.804.094-1.627.304-1.627 1.271 0 .836.627 1.295 1.434 1.295zm.179-.664c-.467 0-.804-.211-.804-.62 0-.443.393-.601.87-.665.268-.036.903-.108 1.022-.227v.548c0 .504-.4.964-1.088.964zM313.395 120.958h.825v-1.509l.412-.412 1.441 1.921h1.014l-1.834-2.428 1.718-1.824h-.989l-1.69 1.799h-.072v-3.217h-.825v5.67zM319.942 118.203h-2.508v.717h2.508v-.717zM321.042 122.553h.826v-2.257h.05c.149.272.453.745 1.226.745 1.027 0 1.773-.825 1.773-2.201 0-1.379-.757-2.19-1.781-2.19-.787 0-1.072.482-1.218.745h-.069v-.689h-.807v5.847zm.809-3.721c0-.889.387-1.478 1.108-1.478.748 0 1.124.633 1.124 1.478 0 .853-.387 1.503-1.124 1.503-.71 0-1.108-.609-1.108-1.503zM327.67 121.044c.925 0 1.58-.457 1.768-1.149l-.782-.141c-.149.401-.508.606-.978.606-.707 0-1.182-.46-1.204-1.279h3.016v-.293c0-1.537-.917-2.138-1.878-2.138-1.182 0-1.961.903-1.961 2.21 0 1.32.768 2.184 2.019 2.184zm-1.193-2.583c.033-.604.47-1.127 1.141-1.127.64 0 1.06.476 1.063 1.127h-2.204zM331.641 121.052c.701 0 1.096-.357 1.253-.675h.034v.581h.806v-2.824c0-1.237-.972-1.484-1.646-1.484-.768 0-1.475.31-1.751 1.086l.776.177c.122-.302.431-.593.986-.593.533 0 .806.28.806.762v.019c0 .302-.309.296-1.071.385-.804.094-1.627.304-1.627 1.271 0 .836.627 1.295 1.434 1.295zm.179-.664c-.467 0-.803-.211-.803-.62 0-.443.392-.601.869-.665.268-.036.904-.108 1.022-.227v.548c0 .504-.4.964-1.088.964zM334.834 120.958h.826v-1.509l.411-.412 1.442 1.921h1.013l-1.834-2.428 1.718-1.824h-.989l-1.69 1.799h-.071v-3.217h-.826v5.67zM342.341 117.744c-.171-.662-.687-1.094-1.604-1.094-.959 0-1.638.507-1.638 1.26 0 .603.365 1.005 1.16 1.182l.718.158c.409.091.599.274.599.54 0 .329-.35.587-.892.587-.494 0-.812-.214-.911-.632l-.798.122c.138.753.762 1.177 1.715 1.177 1.024 0 1.734-.546 1.734-1.315 0-.601-.381-.972-1.16-1.152l-.674-.155c-.466-.111-.668-.268-.665-.556-.003-.327.351-.56.82-.56.514 0 .751.286.848.571l.748-.133zM343.876 121.011a.555.555 0 00.552-.554.555.555 0 00-.552-.551.554.554 0 000 1.105z"/><path fill="#48BB78" d="M150.284 167.189c0-7.381 5.968-13.364 13.331-13.364h57.77c7.363 0 13.331 5.983 13.331 13.364 0 7.381-5.968 13.365-13.331 13.365h-57.77c-7.363 0-13.331-5.984-13.331-13.365z"/><path fill="#fff" d="M167.228 170.906c-.586 0-1.11-.13-1.57-.391-.453-.26-.806-.644-1.06-1.152-.253-.508-.379-1.126-.379-1.855 0-.715.133-1.326.399-1.834a2.804 2.804 0 011.14-1.173c.5-.273 1.087-.41 1.76-.41.747 0 1.35.137 1.81.41.46.268.816.695 1.07 1.283l-1.59.632c-.087-.341-.24-.588-.46-.742-.22-.153-.493-.23-.82-.23-.327 0-.607.08-.84.24-.233.154-.41.384-.53.692-.12.301-.18.675-.18 1.122 0 .468.06.859.18 1.173.127.314.31.548.55.702.247.147.55.22.91.22.193 0 .37-.023.53-.07.16-.047.3-.113.42-.2a.99.99 0 00.28-.341c.067-.14.1-.304.1-.491v-.1h-1.51v-1.153h2.97v3.568h-1.17l-.13-1.553.28.24c-.14.455-.393.805-.76 1.053-.36.24-.827.36-1.4.36zM174.044 170.906c-.554 0-1.033-.103-1.44-.31-.4-.207-.71-.505-.93-.892-.22-.388-.33-.856-.33-1.404 0-.548.11-1.015.33-1.403a2.24 2.24 0 01.92-.892c.4-.207.856-.311 1.37-.311.526 0 .973.104 1.34.311.373.2.656.481.849.842.194.354.29.762.29 1.223 0 .12-.003.24-.01.361-.006.12-.016.22-.03.3h-3.959v-.912h3.21l-.81.311c0-.401-.074-.708-.22-.922-.14-.214-.36-.321-.66-.321a.982.982 0 00-.55.15.957.957 0 00-.34.471c-.073.214-.11.488-.11.822 0 .328.043.595.13.802.087.201.21.348.37.441.16.087.353.131.58.131.253 0 .453-.051.6-.151a.89.89 0 00.34-.421l1.359.451a1.588 1.588 0 01-.49.732 2.287 2.287 0 01-.819.441c-.314.1-.644.15-.99.15zM179.425 164.201v4.821c0 .241.057.414.17.521.12.1.284.151.49.151.16 0 .297-.017.41-.051.12-.04.227-.096.32-.17l.18 1.053a1.89 1.89 0 01-.63.28c-.253.067-.513.1-.78.1-.38 0-.71-.053-.989-.16a1.312 1.312 0 01-.64-.511c-.147-.234-.224-.545-.23-.932v-4.631l1.699-.471zm1.49 1.594v1.212h-4.049v-1.212h4.049zM187.261 164.091c.613 0 1.153.096 1.62.29.473.187.883.465 1.23.832l-.83 1.113a2.917 2.917 0 00-.93-.672c-.327-.154-.7-.23-1.12-.23-.247 0-.447.026-.6.08a.657.657 0 00-.33.22.539.539 0 00-.1.321c0 .14.063.261.19.361.133.093.347.174.64.24l1.11.251c.66.154 1.143.378 1.45.672.306.294.46.685.46 1.172 0 .468-.12.866-.36 1.193a2.23 2.23 0 01-.99.732c-.42.16-.9.24-1.44.24-.44 0-.86-.046-1.26-.14a4.3 4.3 0 01-1.08-.421c-.32-.18-.59-.387-.81-.621l.83-1.153c.167.194.37.367.61.521.247.147.513.264.8.351.293.087.59.13.89.13.233 0 .427-.023.58-.07a.674.674 0 00.35-.21.524.524 0 00.11-.331c0-.14-.05-.257-.15-.351-.1-.1-.29-.184-.57-.251l-1.22-.27a4.903 4.903 0 01-1-.341 1.828 1.828 0 01-.68-.581c-.166-.248-.25-.555-.25-.922 0-.415.114-.782.34-1.103.227-.327.554-.585.98-.772.427-.187.937-.28 1.53-.28zM193.095 164.201v4.821c0 .241.057.414.17.521.12.1.284.151.49.151.16 0 .297-.017.41-.051.12-.04.227-.096.32-.17l.18 1.053a1.89 1.89 0 01-.63.28c-.253.067-.513.1-.78.1-.38 0-.71-.053-.989-.16a1.312 1.312 0 01-.64-.511c-.147-.234-.224-.545-.23-.932v-4.631l1.699-.471zm1.49 1.594v1.212h-4.049v-1.212h4.049zM198.238 167.629c0-.234-.067-.418-.2-.552-.127-.14-.3-.21-.52-.21-.22 0-.41.057-.57.17-.153.107-.26.301-.32.582l-1.44-.341c.094-.481.34-.865.74-1.153.4-.287.964-.431 1.69-.431.487 0 .9.074 1.24.221.347.14.61.354.79.641.187.281.28.628.28 1.043v1.834c0 .261.117.391.35.391.12 0 .216-.013.29-.04l-.1.972c-.2.094-.443.14-.73.14-.26 0-.49-.04-.69-.12a1.065 1.065 0 01-.47-.381 1.172 1.172 0 01-.17-.651v-.06l.19-.071c0 .288-.087.528-.26.722a1.479 1.479 0 01-.66.431c-.266.094-.546.14-.84.14-.34 0-.636-.053-.89-.16a1.334 1.334 0 01-.59-.461c-.133-.207-.199-.461-.199-.762 0-.361.106-.658.319-.892.22-.24.564-.408 1.03-.501l1.89-.391-.01.902-.96.201c-.2.04-.35.1-.45.18-.093.074-.14.187-.14.341 0 .147.054.257.16.331.107.073.234.11.38.11.114 0 .22-.017.32-.05a.813.813 0 00.28-.151.789.789 0 00.19-.27.943.943 0 00.07-.381v-1.323zM201.239 170.806v-5.011h1.499l.07 1.082c.127-.374.314-.665.56-.872.254-.207.574-.311.96-.311.127 0 .234.01.32.03.094.02.167.047.22.081l-.17 1.403a1.031 1.031 0 00-.26-.06c-.1-.02-.223-.03-.37-.03-.2 0-.386.043-.56.13a1.03 1.03 0 00-.42.391c-.1.167-.15.381-.15.641v2.526h-1.699zM207.508 164.201v4.821c0 .241.056.414.169.521.12.1.284.151.49.151.16 0 .297-.017.41-.051.12-.04.227-.096.32-.17l.18 1.053a1.89 1.89 0 01-.63.28c-.253.067-.513.1-.78.1-.379 0-.709-.053-.989-.16a1.312 1.312 0 01-.64-.511c-.147-.234-.224-.545-.23-.932v-4.631l1.7-.471zm1.489 1.594v1.212h-4.049v-1.212h4.049zM212.222 170.906c-.553 0-1.033-.103-1.44-.31-.4-.207-.71-.505-.93-.892-.22-.388-.33-.856-.33-1.404 0-.548.11-1.015.33-1.403a2.24 2.24 0 01.92-.892c.4-.207.857-.311 1.37-.311.527 0 .973.104 1.34.311.373.2.657.481.85.842.193.354.29.762.29 1.223 0 .12-.004.24-.01.361-.007.12-.017.22-.03.3h-3.96v-.912h3.21l-.81.311c0-.401-.073-.708-.22-.922-.14-.214-.36-.321-.66-.321a.987.987 0 00-.55.15.963.963 0 00-.34.471c-.073.214-.11.488-.11.822 0 .328.044.595.13.802.087.201.21.348.37.441.16.087.353.131.58.131.253 0 .453-.051.6-.151.153-.1.267-.24.34-.421l1.36.451a1.603 1.603 0 01-.49.732 2.3 2.3 0 01-.82.441c-.313.1-.643.15-.99.15zM217.412 170.906c-.413 0-.776-.1-1.089-.3-.307-.207-.547-.505-.72-.892-.167-.388-.25-.852-.25-1.394 0-.561.086-1.035.26-1.423.18-.387.426-.685.74-.892.32-.207.686-.311 1.099-.311.454 0 .817.141 1.09.421.28.274.46.625.54 1.053l-.16.21v-3.708h1.7v7.136h-1.52l-.11-1.704.2.151c-.04.334-.143.624-.31.872-.16.247-.366.441-.62.581-.246.134-.53.2-.85.2zm.59-1.253c.194 0 .357-.05.49-.15a.986.986 0 00.32-.471c.074-.207.11-.461.11-.762a2 2 0 00-.11-.711.864.864 0 00-.31-.451.756.756 0 00-.49-.161.844.844 0 00-.7.331c-.166.214-.25.555-.25 1.022 0 .468.084.812.25 1.033.167.214.397.32.69.32z"/><path fill="#4299E1" d="M171.977 192.906h3.417v-.737h-2.563v-4.933h-.854v5.67zM178.129 192.992c.925 0 1.58-.457 1.767-1.149l-.781-.141c-.149.401-.508.606-.978.606-.707 0-1.182-.46-1.204-1.279h3.016v-.294c0-1.536-.917-2.137-1.878-2.137-1.182 0-1.961.903-1.961 2.209 0 1.321.768 2.185 2.019 2.185zm-1.193-2.583c.033-.604.469-1.127 1.14-1.127.641 0 1.061.476 1.064 1.127h-2.204zM182.099 193c.702 0 1.097-.357 1.254-.676h.033v.582h.807v-2.824c0-1.237-.972-1.484-1.646-1.484-.768 0-1.475.31-1.751 1.085l.776.178c.121-.302.431-.593.986-.593.533 0 .806.28.806.761v.02c0 .302-.309.296-1.071.385-.804.094-1.627.304-1.627 1.27 0 .836.627 1.296 1.433 1.296zm.18-.664c-.467 0-.804-.211-.804-.621 0-.443.392-.6.87-.664.268-.036.903-.108 1.022-.227v.548c0 .504-.4.964-1.088.964zM185.293 192.906h.825v-2.597c0-.556.428-.958 1.014-.958.171 0 .364.031.431.05v-.792a3.379 3.379 0 00-.351-.019c-.497 0-.923.282-1.077.739h-.044v-.675h-.798v4.252zM189.103 190.381c0-.678.414-1.066.989-1.066.56 0 .9.368.9.986v2.605h.826v-2.705c0-1.052-.578-1.603-1.445-1.603-.638 0-1.055.296-1.251.748h-.052v-.692h-.793v4.252h.826v-2.525zM194.983 192.906h.826v-2.622c0-.573.4-.972.87-.972.458 0 .776.305.776.767v2.827h.823v-2.71c0-.513.312-.884.85-.884.437 0 .796.244.796.82v2.774h.825v-2.852c0-.971-.541-1.456-1.309-1.456-.61 0-1.068.294-1.273.748h-.044c-.185-.465-.574-.748-1.141-.748-.56 0-.977.28-1.154.748h-.052v-.692h-.793v4.252zM203.643 192.992c1.196 0 1.977-.878 1.977-2.193 0-1.323-.781-2.201-1.977-2.201-1.196 0-1.978.878-1.978 2.201 0 1.315.782 2.193 1.978 2.193zm.003-.695c-.782 0-1.146-.684-1.146-1.501 0-.814.364-1.506 1.146-1.506.776 0 1.14.692 1.14 1.506 0 .817-.364 1.501-1.14 1.501zM206.542 192.906h.826v-2.597c0-.556.428-.958 1.013-.958.171 0 .365.031.431.05v-.792a3.379 3.379 0 00-.351-.019c-.497 0-.922.282-1.077.739h-.044v-.675h-.798v4.252zM211.203 192.992c.925 0 1.579-.457 1.767-1.149l-.781-.141c-.149.401-.508.606-.978.606-.707 0-1.182-.46-1.204-1.279h3.016v-.294c0-1.536-.917-2.137-1.878-2.137-1.182 0-1.961.903-1.961 2.209 0 1.321.768 2.185 2.019 2.185zm-1.193-2.583c.033-.604.469-1.127 1.14-1.127.641 0 1.061.476 1.063 1.127h-2.203z"/><path fill="#2D3748" fill-rule="evenodd" d="M249.744 180.466a.415.415 0 01.37-.145c.87.11 2.187.236 3.488.233 1.322-.004 2.549-.142 3.291-.512a.415.415 0 11.369.744c-.929.463-2.33.595-3.659.598a27.964 27.964 0 01-2.915-.161c.283.643.672 1.224 1.081 1.836l.248.372c.613.928 1.216 1.945 1.347 3.261a.415.415 0 11-.826.083c-.11-1.101-.611-1.974-1.214-2.886a27.656 27.656 0 00-.238-.357c-.532-.793-1.107-1.65-1.421-2.677a.415.415 0 01.079-.389zm2.733 1.75a.414.414 0 01.583-.068c5.507 4.361 12.968 6.851 19.724 6.334 6.733-.516 12.751-4.011 15.496-11.634a.416.416 0 11.781.281c-2.872 7.978-9.207 11.645-16.214 12.181-6.984.535-14.648-2.033-20.302-6.511a.415.415 0 01-.068-.583z" clip-rule="evenodd"/><path fill="#2D3748" d="M267.856 166.591l.013-.021c.012-.05-.024-.088-.109-.114a1.437 1.437 0 01-.261-.414 1.672 1.672 0 01-.14-.426.355.355 0 01-.003-.089c.006-.025.021-.041.043-.046a.287.287 0 01.085-.02.524.524 0 01.075-.014c.105-.039.18-.053.226-.043.05.012.085.055.105.13a.857.857 0 00.266.399c.137.118.301.2.493.245.172.041.333.047.483.019.146-.03.232-.103.26-.219a.64.64 0 00-.04-.338.21.21 0 00-.034-.096.647.647 0 00-.073-.097 2.734 2.734 0 01-.209-.298 1.743 1.743 0 01-.221-.181l-.141-.114c-.112-.09-.23-.22-.356-.389a1.421 1.421 0 01-.236-.456c-.085-.133-.103-.308-.051-.525.056-.238.164-.447.324-.628.092-.122.288-.298.587-.526.299-.228.513-.364.64-.409l.242-.143c.01-.019.02-.027.03-.025a.075.075 0 01.024-.002 1.6 1.6 0 01.175-.03c.101-.019.213-.065.336-.137.344-.079.641-.12.893-.125.257-.008.467.007.628.045.195.057.36.171.495.342.141.172.203.347.188.525a.69.69 0 01-.014.125c-.044.187-.169.379-.375.576-.207.197-.407.323-.601.378a.519.519 0 01-.232.001.334.334 0 01-.196-.118.208.208 0 01-.027-.191.344.344 0 01.081-.141c.05-.052.148-.13.295-.234.232-.212.36-.374.387-.485.018-.076-.017-.133-.104-.169-.052-.029-.209-.042-.47-.04-.256-.002-.386.01-.392.035a.132.132 0 01-.015.029c-.002.01-.011.011-.025.002-.019-.01-.182.04-.49.148-.303.11-.463.176-.479.199-.011.024-.037.047-.08.069a.514.514 0 01-.129.042.978.978 0 00-.304.168 4.836 4.836 0 00-.387.389 1.377 1.377 0 00-.218.244.865.865 0 00-.117.261.416.416 0 00-.012.149.424.424 0 00.109.251c.076.082.223.229.439.44.223.208.418.42.585.636.169.211.265.37.287.477a.797.797 0 01.014.483 1.474 1.474 0 01-.159.403c-.068.086-.147.16-.237.225-.091.069-.163.094-.218.076a.61.61 0 00-.141.023.44.44 0 01-.103.031c-.069.021-.234.02-.494-.005a3.45 3.45 0 01-.633-.094l-.282-.163zM271.428 167.022c-.077-.034-.153-.119-.228-.254a.943.943 0 01-.119-.341.045.045 0 00-.008-.034.23.23 0 00-.016-.036c-.016-.02-.007-.106.029-.257a5.25 5.25 0 01.105-.376c.046-.128.089-.23.128-.306l.231-.37.178-.278.308-.392-.283-.155a.143.143 0 01-.078-.075.157.157 0 01-.011-.09.434.434 0 01.102-.16c.063-.065.108-.095.133-.089a1.863 1.863 0 00.465.094.19.19 0 00.135-.096.756.756 0 01.108-.118l.106-.111.1-.121a4.194 4.194 0 01.274-.279.557.557 0 01.164-.122.373.373 0 01.136-.032.417.417 0 01.158.006.325.325 0 01.202.128c.029.082.039.14.03.175a.331.331 0 01-.098.145 1.94 1.94 0 01-.209.207 3.276 3.276 0 00-.188.188c-.066.054-.103.098-.111.134-.009.035.02.061.086.076.07.017.192.03.366.039a.596.596 0 01.108.018c.121.028.198.084.232.167a.456.456 0 01.013.283c-.017.071-.052.108-.106.111a1.328 1.328 0 01-.323-.052 3.281 3.281 0 01-.509-.081 1.029 1.029 0 00-.107-.018.488.488 0 00-.118-.011.186.186 0 00-.101.024.515.515 0 00-.076.086 1.178 1.178 0 00-.148.149c-.105.13-.171.208-.198.233a7.974 7.974 0 00-.584 1.12.652.652 0 00-.035.112c-.015.065-.007.118.027.158.039.036.122.069.248.099.141.034.279.048.414.042a3.15 3.15 0 00.38-.086l.137-.04.096-.033c.029-.036.061-.023.094.039a.503.503 0 01.073.201.616.616 0 01-.112.238c-.052.062-.159.117-.319.165a1.931 1.931 0 01-1.052.054 1.117 1.117 0 01-.229-.078zM273.617 167.365a.441.441 0 00-.1-.152c-.059-.067-.087-.106-.084-.116.004-.02-.002-.051-.019-.092a.889.889 0 00-.035-.121c-.031-.05.028-.175.176-.375.149-.199.339-.432.573-.697a.94.94 0 00.151-.132.632.632 0 01.129-.106.073.073 0 01.035-.048c.02-.016.04-.022.06-.018l.089-.107c.031-.04.155-.126.372-.256s.384-.213.499-.25a.553.553 0 01.333-.025.486.486 0 01.286.18l.163.223c.121.162.19.256.205.281l.221.317-.218.348a1.27 1.27 0 00-.16.371c-.045.192-.034.385.032.577a.338.338 0 00.068.152.425.425 0 00.16.102c.106.046.148.115.127.206a.43.43 0 01-.12.236.27.27 0 01-.169.072 1.715 1.715 0 01-.17-.024.76.76 0 01-.374-.209c-.103-.105-.179-.259-.227-.462a1.281 1.281 0 01-.057-.366 1.678 1.678 0 01-.221.156c-.643.402-1.127.565-1.45.489a.551.551 0 01-.275-.154zm.565-.531c.078.03.256-.024.534-.162l.099-.048c.037-.023.077-.046.12-.068.168-.083.3-.153.393-.211.1-.062.203-.139.31-.231l.231-.233a.713.713 0 00-.084-.253c-.031-.05-.066-.079-.107-.089-.1-.024-.248.037-.442.183-.194.141-.439.369-.737.683a1.53 1.53 0 00-.204.256 6.435 6.435 0 00-.113.173zM277.395 168.262a.801.801 0 01-.283-.156.398.398 0 01-.064-.335.652.652 0 01.203-.321c.045-.053.17-.245.376-.575l.25-.382c.03-.083.04-.145.028-.185-.011-.046-.048-.079-.113-.099-.055-.013-.091-.041-.108-.082a.37.37 0 01.007-.199c.049-.143.132-.235.249-.277a.784.784 0 01.347.018c.126.03.205.068.237.113.034.04.053.116.058.23.005.113.005.217-.002.312a1.54 1.54 0 00.245-.158l.208-.135c.1-.041.212-.076.336-.105a.69.69 0 01.255-.028c.05.012.11.053.178.123.069.07.111.13.125.182a.812.812 0 01.032.376.254.254 0 01-.093.154c-.177.14-.348.19-.515.15a.493.493 0 01-.096-.031c-.024-.011-.046-.053-.066-.128a.531.531 0 01-.025-.166c.004-.015-.041.007-.135.065l-.168.104-.161.106a2.357 2.357 0 00-.34.32l-.531.627-.154.212a6.788 6.788 0 01-.173.223c-.036.04-.071.055-.107.047zM280.098 169.552c-.195-.052-.325-.133-.389-.245-.061-.105-.072-.238-.034-.4a2.1 2.1 0 01.062-.194c.037-.066.069-.133.096-.201.051-.106.092-.165.122-.18a.106.106 0 00.022-.026c.009-.014.007-.028-.006-.042a.827.827 0 01.133-.257.93.93 0 01.109-.158c-.008-.013-.009-.029-.005-.049.006-.026.025-.048.056-.067a.242.242 0 00.077-.054c.02-.017.025-.037.014-.061-.004-.028.071-.13.225-.307.096-.116.149-.181.157-.195-.001-.016.056-.102.173-.256.121-.152.215-.266.28-.342.052-.014.038-.036-.04-.065a1.828 1.828 0 00-.294-.078 5.309 5.309 0 01-.38-.114.715.715 0 01-.203-.121.19.19 0 01-.021-.149.277.277 0 01.314-.214c.132.027.338.057.618.091l.393.061.053-.123c.036-.04.068-.072.095-.098a.454.454 0 00.117-.189.945.945 0 00.111-.133.762.762 0 00.131-.218c.079-.083.151-.162.216-.237a3.87 3.87 0 01.129-.138c.123-.115.24-.159.351-.133.06.015.119.05.175.106.054.061.095.114.122.157a.198.198 0 01.019.157.493.493 0 01-.114.181c-.03.036-.08.11-.149.221a1.249 1.249 0 00-.158.163.88.88 0 00-.135.2l-.071.096a.352.352 0 01-.063.065c-.006.004-.017.004-.032 0-.002.032.003.054.016.068.013.014.037.025.072.033a.616.616 0 00.093.014c.041.005.09.014.145.027a.728.728 0 00.134.007c.043 0 .082.004.117.012.021.005.049.02.086.045.018.036.017.097-.004.183a.574.574 0 01-.075.182c-.033.051-.066.081-.1.089a2.57 2.57 0 00-.178.006 1.22 1.22 0 01-.29-.021l-.41-.057-.19.227c-.05.052-.094.103-.132.153a.476.476 0 01-.076.086.445.445 0 01-.097.137c-.058.067-.102.12-.133.161a2.036 2.036 0 01-.24.304c-.015-.004-.026-.001-.034.008a.456.456 0 01-.007.03l.001.064c-.006.025-.025.048-.056.067a.187.187 0 00-.073.039c-.021.021-.035.037-.043.046.008.012.01.026.006.041a.271.271 0 01-.085.124c-.02.086-.086.207-.197.362a1.874 1.874 0 00-.026.178c-.001.027.009.04.031.039l.037.009.169.032c.039-.007.037.033-.004.119a2.545 2.545 0 01-.228.387 1.851 1.851 0 01-.313.246c-.103.072-.166.105-.192.099zM283.986 166.661c-.019.012-.036.016-.051.012-.02-.005-.049-.028-.087-.069-.05-.017-.108-.076-.174-.177-.062-.1-.09-.163-.084-.188.01-.062.035-.147.076-.255a1.18 1.18 0 01.157-.291c.067-.08.136-.114.208-.103.034.014.079.038.135.072.057.03.12.069.188.117.051.215.06.391.027.527-.047.203-.179.321-.395.355zm-1.44 2.983c-.121-.029-.212-.117-.273-.265a1.048 1.048 0 01-.047-.508c.064-.182.111-.315.142-.399.114-.234.25-.509.41-.824.166-.318.26-.493.284-.525a.131.131 0 01.137-.04.336.336 0 01.166.112.489.489 0 01.132.215.317.317 0 01.016.204c-.025.107-.128.317-.309.632a7.88 7.88 0 00-.263.506c-.045.102-.08.214-.103.336a4.115 4.115 0 01-.172.456c-.041.082-.08.115-.12.1zM286.124 170.309c-.316-.086-.432-.303-.35-.652.023-.096.053-.188.089-.275a2.92 2.92 0 00.071-.232l.029-.121c.008-.105-.012-.163-.063-.175-.091-.022-.281.027-.57.145a8.383 8.383 0 00-.911.441 2.59 2.59 0 00-.262.194.52.52 0 01-.142.094.232.232 0 01-.126-.006c-.068-.026-.137-.099-.205-.216a.89.89 0 01-.12-.301c.033-.142.09-.27.17-.385.082-.119.196-.265.344-.439.081-.141.175-.279.281-.414.118-.159.202-.28.254-.364.058-.088.104-.181.138-.28.001-.005-.001-.008-.006-.009a.08.08 0 01.035-.048.078.078 0 01.059-.01c.014-.013.046-.013.096-.001a.569.569 0 01.315.187c.08.093.102.213.067.36a.563.563 0 01-.097.209c-.041.06-.118.159-.23.298l-.123.147-.1.121a.346.346 0 00-.071.095c.147-.056.322-.134.527-.235.3-.143.544-.25.732-.323.188-.073.319-.101.395-.083.066.016.147.075.246.179.104.099.159.182.165.247a1.193 1.193 0 01-.053.156l-.06.186-.048.237a1.529 1.529 0 01-.035.184 1.326 1.326 0 01-.111.334.094.094 0 01.012.051l-.011.013a.938.938 0 00.026.263c.024.123.035.19.032.2-.013.055-.066.11-.158.163a.412.412 0 01-.231.065zM287.26 172.333a.926.926 0 01-.41-.226 1.16 1.16 0 01-.295-.374c-.069-.139-.092-.257-.069-.353.023-.096.06-.162.111-.198a.212.212 0 01.166-.025.26.26 0 01.131.088c.041.052.086.121.134.208.05.081.097.145.139.193a.246.246 0 00.129.095c.172.04.328-.037.471-.233.142-.196.308-.482.498-.859l.214-.43.027-.05c.001-.005-.001-.006-.007-.002-.005-.001-.01-.005-.014-.011-.095.042-.27.072-.525.092-.255.019-.463.01-.624-.028-.096-.023-.17-.094-.222-.213a.694.694 0 01-.013-.42l.011-.045c.015-.018.109-.156.282-.414.172-.258.283-.376.331-.354.015.004.044-.019.088-.067.049-.053.077-.089.081-.109a.314.314 0 01.103-.064l.154-.075.233-.105a2.85 2.85 0 01.572-.257.935.935 0 01.42-.053l.074.026a.606.606 0 01.081.027c.045.011.119.05.22.116.101.072.188.21.262.415.074.205.101.374.08.508-.038.114-.09.221-.156.323-.066.097-.119.14-.159.131-.071-.017-.128-.012-.172.015a.507.507 0 00-.139.151 1.628 1.628 0 01-.164.186l-.259.555-.22.46a5.262 5.262 0 01-.333.562c-.068.177-.176.33-.324.46a1.341 1.341 0 01-.47.297.795.795 0 01-.437.057zm.595-2.623c.096.023.249.019.459-.011.216-.034.354-.079.415-.134.032-.024.096-.079.19-.163a.899.899 0 01.307-.184.227.227 0 00.103-.063.2.2 0 00.072-.103l.004-.015a.63.63 0 00-.02-.117.521.521 0 00-.08-.172.225.225 0 00-.143-.106c-.052-.001-.192.062-.42.189-.222.129-.436.27-.643.424-.202.155-.312.271-.33.347-.013.055.016.092.086.108zM292.034 171.759c-.09 0-.183-.07-.278-.21-.095-.14-.141-.26-.138-.361a.754.754 0 01.015-.133c.047-.197.166-.42.358-.668.193-.253.424-.479.695-.676.275-.197.555-.32.838-.37a.684.684 0 01.224-.035c.031.007.092.051.185.132.095.049.169.096.222.141a.5.5 0 01.133.184c.034.147.044.32.029.519.005.114.002.193-.008.239a.15.15 0 01-.071.095.645.645 0 01-.037.023c-.014.013-.022.024-.024.034-.001.006.003.009.013.012-.001.005-.007.017-.016.036a.81.81 0 01-.047.061c-.106.178-.171.32-.196.426a.652.652 0 00-.016.132c.02.144.067.225.143.243.071.016.162-.01.274-.079a.415.415 0 01.245-.022c.046.01.065.028.059.054l.025.03a.095.095 0 00.042.026c.02.004.025.029.014.075a.568.568 0 01-.068.152.515.515 0 01-.098.145 1.374 1.374 0 00-.104.071c-.027.021-.042.039-.045.054l-.139.079a.684.684 0 01-.36.003.588.588 0 01-.306-.161 1.26 1.26 0 01-.178-.259.718.718 0 01-.083-.26l-.02-.084-.253.092-.236.152c-.052.041-.094.058-.124.051l-.075-.018c-.009.035-.09.061-.243.079-.153.017-.27.016-.351-.004zm.31-.599c.055.013.184-.023.385-.109a2.1 2.1 0 00.429-.227c.026-.02.06-.05.101-.088a.825.825 0 01.118-.092c.103-.077.179-.139.227-.186a.327.327 0 00.102-.161.42.42 0 00-.013-.179c-.006-.066-.029-.103-.07-.113a.971.971 0 00-.186.012c-.109.033-.25.12-.422.261-.166.142-.318.29-.456.444-.138.154-.216.272-.235.353a.084.084 0 00.004.049.23.23 0 00.016.036zM295.322 173.164c-.195-.051-.325-.133-.389-.244-.061-.105-.072-.239-.034-.401.01-.04.03-.105.062-.193a1.54 1.54 0 00.095-.202c.052-.105.093-.165.123-.179a.098.098 0 00.022-.027c.009-.014.007-.028-.006-.042a.854.854 0 01.132-.257c.019-.033.04-.065.063-.097l.047-.061c-.008-.012-.009-.029-.005-.049.006-.025.025-.048.056-.067a.242.242 0 00.077-.054c.02-.016.024-.037.014-.06-.004-.028.071-.131.225-.308.096-.116.149-.181.157-.195-.001-.016.056-.101.173-.255.121-.153.214-.267.28-.342.052-.015.038-.037-.04-.066a1.837 1.837 0 00-.294-.077 5.216 5.216 0 01-.38-.115.737.737 0 01-.204-.12.195.195 0 01-.02-.149.284.284 0 01.111-.166.267.267 0 01.203-.048c.132.026.338.056.618.09l.393.062.053-.124c.036-.039.068-.072.095-.098a.463.463 0 00.117-.188.977.977 0 00.111-.134.757.757 0 00.131-.217c.079-.083.15-.162.216-.237a3.87 3.87 0 01.129-.138c.123-.115.24-.159.351-.133.06.014.118.049.175.105.054.062.095.114.122.158a.2.2 0 01.019.156.495.495 0 01-.115.182 2.31 2.31 0 00-.148.221 1.231 1.231 0 00-.158.162.908.908 0 00-.135.201l-.071.095a.294.294 0 01-.063.065c-.006.004-.017.004-.032.001-.002.031.003.054.016.068a.161.161 0 00.072.033c.025.006.056.01.093.014.041.004.09.013.145.026.052.007.097.01.134.008a.43.43 0 01.117.012.266.266 0 01.086.044c.018.036.017.097-.004.183a.589.589 0 01-.075.183c-.033.051-.067.08-.1.088a2.57 2.57 0 00-.178.006 1.22 1.22 0 01-.29-.021l-.41-.057-.19.227a2.1 2.1 0 00-.132.153.44.44 0 01-.076.086.434.434 0 01-.097.138 3.42 3.42 0 00-.133.16 1.913 1.913 0 01-.141.191l-.099.113c-.015-.004-.026-.001-.034.008l-.007.03.001.065c-.006.025-.025.047-.056.066a.218.218 0 00-.073.039 2.032 2.032 0 00-.043.046c.008.013.01.026.006.042a.282.282 0 01-.085.124c-.02.086-.086.206-.197.361a1.612 1.612 0 00-.026.178c-.001.027.009.04.03.04l.038.009.169.032c.038-.007.037.033-.005.119a2.53 2.53 0 01-.227.387c-.103.098-.207.18-.314.246-.102.071-.166.104-.191.098zM303.21 169.821c.117.07.212.154.284.251.08.094.112.182.098.264a.436.436 0 01-.105.175c-.057.062-.121.084-.192.067a.542.542 0 01-.173-.113 1.192 1.192 0 00-.329-.198l-.664.747-.145.174-.251.285.139.225c.024.033.033.062.027.087.01.002.039.062.086.18.048.113.069.18.064.2.004-.015.013.016.026.094a1.42 1.42 0 01-.009.615c-.015.061-.083.138-.207.231-.117.09-.229.16-.337.209-.391.19-.842.262-1.353.215-.329.467-.51.747-.542.841-.038.135-.073.218-.107.247-.028.031-.078.038-.148.021a.176.176 0 01-.122-.093.292.292 0 01-.004-.185c.034-.147.121-.345.26-.595a.685.685 0 00.207-.304l-.106-.025a1.439 1.439 0 01-.215-.067c-.059-.025-.093-.046-.105-.065-.066-.015-.136-.067-.211-.154a1.165 1.165 0 01-.176-.306.541.541 0 01-.034-.297.292.292 0 01.152-.204.443.443 0 01.293-.019.49.49 0 01.199.104 1.323 1.323 0 01-.069.088.325.325 0 00-.07.127c-.011.046.015.094.077.147a.922.922 0 00.344.137c.121.029.21.047.266.055l.164-.217c.472-.625.721-.948.748-.968.02.004.047-.008.08-.037a.26.26 0 00.071-.096l.01-.045-.011-.019a1.976 1.976 0 00-.105-.265.496.496 0 00-.119-.173.434.434 0 01-.039-.105c-.014-.057-.025-.089-.034-.096.005.001-.009-.029-.042-.09-.029-.061-.029-.149-.002-.265a.95.95 0 01.171-.352.864.864 0 01.335-.265c.071-.053.191-.112.361-.179.172-.071.273-.103.303-.096l.032-.001a6.63 6.63 0 00.215-.029.937.937 0 01.356.013l.176.001c.451-.582.683-.895.693-.941.041-.059.087-.083.137-.071l.038.009c.013-.008.039-.007.079.002l.027.023.059.054a.586.586 0 01.031.344.705.705 0 01-.085.156c-.025.037-.08.101-.165.193-.09.085-.2.203-.332.354zm-1.67 1.318c.129-.14.394-.459.794-.957a.722.722 0 00-.472.136.966.966 0 00-.33.178.425.425 0 00-.144.206l.013.115a.472.472 0 00.055.174l.084.148zm-.133 1.41a.407.407 0 01.026-.074.578.578 0 00.029-.089c.025-.106-.012-.254-.111-.443-.002.005-.008.012-.021.019-.02-.004-.039.01-.058.043a1.149 1.149 0 01-.251.317l-.153.212-.351.501c.233.007.409-.018.529-.074a.527.527 0 00.256-.204l.02-.084a.248.248 0 00.085-.124zM304.429 174.989a.16.16 0 01-.072-.001.716.716 0 01-.195-.087.429.429 0 01-.195-.222.276.276 0 01.007-.134c.02-.081.065-.196.138-.344a10.127 10.127 0 01.368-.682c.046-.011.195-.237.448-.679.141-.255.293-.515.456-.781a3.41 3.41 0 01.299-.418l-.276.087a4.2 4.2 0 00-.449.174 4.496 4.496 0 00-.328.138 2.706 2.706 0 01-.362.147l-.152.068c-.018.006-.05.02-.098.041a.355.355 0 01-.105.039.125.125 0 01-.057.002.1.1 0 01-.055-.037.855.855 0 01-.13-.295c-.03-.119-.024-.201.018-.244.011-.003.126-.05.345-.142.206-.085.342-.138.405-.161.011.003.042-.008.096-.033.055-.03.106-.052.152-.068.02-.017.16-.077.419-.181l.471-.201c.196-.065.379-.118.548-.158.175-.039.271-.053.29-.043a.769.769 0 01.176.169c.089.096.132.165.127.207a.142.142 0 01.003.057.629.629 0 01-.106.175 8.89 8.89 0 00-.407.608c-.199.322-.352.576-.46.764a6.207 6.207 0 01-.274.448l-.114.181a3.713 3.713 0 00-.128.234 4.91 4.91 0 00-.26.427 9.483 9.483 0 00-.247.47 3.35 3.35 0 00-.159.267c-.066.123-.112.192-.137.208zM306.444 175.195a.797.797 0 01-.079-.107c-.017-.042-.023-.072-.018-.093-.005-.022-.012-.037-.021-.045a.086.086 0 00-.036-.016c-.023.005-.031-.05-.025-.166a.72.72 0 01.04-.239c.023-.027.061-.044.117-.053a.39.39 0 01.167 0c.081.019.119.05.115.091 0 .043.028.084.082.124a.87.87 0 00.235.088c.419.099.8.008 1.144-.274.061-.076.122-.179.185-.308.068-.133.112-.238.13-.314.01-.045.008-.07-.007-.074a.274.274 0 00-.001-.064.572.572 0 00-.005-.113.61.61 0 00-.12-.269.952.952 0 00-.224-.237l-.074-.026a3.768 3.768 0 00-.433-.063l-.077-.01a.174.174 0 01-.066-.024c-.009-.007-.013-.013-.012-.018-.038-.02-.097-.085-.178-.195-.074-.114-.107-.188-.099-.224.033-.072.156-.208.369-.409.212-.201.387-.343.524-.428a1.568 1.568 0 011.212-.225c.177.041.302.087.375.137a.496.496 0 01.177.234.407.407 0 01.002.193.338.338 0 01-.086.163c-.041.039-.084.053-.13.042a.12.12 0 01-.064-.032.461.461 0 00-.222-.108 1.715 1.715 0 00-.457-.029 2.508 2.508 0 01-.174.023.748.748 0 00-.176.038.224.224 0 00-.098.074.367.367 0 00-.048.036c-.019.012-.035.013-.049.004l-.039.031a.08.08 0 00-.026.042.33.33 0 00-.049.037.104.104 0 01-.037.023c-.005-.001-.011-.011-.018-.028l-.025.074c-.013.034-.009.062.012.083a.994.994 0 00.182.075c.137.054.233.098.289.133.055.034.133.101.232.199.13.127.208.295.233.504.025.209.01.432-.046.67a3.042 3.042 0 01-.107.351 1.35 1.35 0 01-.118.261.98.98 0 01-.176.206 1.955 1.955 0 01-.876.425c-.35.083-.663.091-.941.025a.769.769 0 01-.385-.195zM308.794 176.802a.323.323 0 01-.234-.16c-.049-.086-.057-.198-.025-.334.04-.167.13-.346.271-.537l.1-.12a.54.54 0 00.108-.151c.055-.078.277-.34.665-.787.394-.452.675-.77.841-.955l.007.002c.021.005.041-.004.062-.025a.352.352 0 00.071-.096.42.42 0 01.085-.124c.036-.039.068-.061.095-.065.009-.014.025-.037.049-.069a.234.234 0 00.049-.076.157.157 0 01.036-.048c.026-.02.041-.038.044-.053.139-.112.505-.492 1.101-1.141.602-.653.915-1.011.941-1.075.023-.074.078-.093.165-.057a.15.15 0 01.127.006c.011.019.032.056.061.111.036.051.068.11.095.175a.218.218 0 01.019.157.452.452 0 01-.055.131.509.509 0 01-.105.175c-.038.045-.127.13-.269.257l-.272.24a9.105 9.105 0 00-.483.486c-.221.236-.331.365-.331.386l-.082.077c-.036.039-.07.082-.102.128a5.743 5.743 0 00-.356.324 3.089 3.089 0 00-.263.266 1.152 1.152 0 00-.035.048c-.01.019-.029.033-.058.042-.009-.008-.024 0-.045.021a.132.132 0 00-.026.042c.001.043-.09.155-.271.336l-.267.321c-.054.068-.207.253-.459.557-.253.303-.464.563-.632.779a3.302 3.302 0 00-.291.42.967.967 0 01-.166.265c-.066.075-.121.115-.165.121zM315.323 177.245a.307.307 0 01-.144-.066.642.642 0 01-.134-.144.912.912 0 01-.107-.29 1.065 1.065 0 01.025-.41c.022-.096.047-.179.074-.247.033-.072.052-.119.057-.139.006-.025.001-.039-.014-.043-.131-.031-.473.141-1.025.518a.128.128 0 00-.047.029 1.727 1.727 0 00-.201.104 2.024 2.024 0 01-.226.115.339.339 0 01-.164.017.194.194 0 01-.103-.073l-.067-.088a.2.2 0 01-.049-.099.277.277 0 01-.003-.121l.009-.038.294-.467c.192-.248.294-.398.306-.448.002-.01.001-.016-.004-.017-.045-.016-.122.008-.233.073-.105.06-.259.16-.463.299l-.424.275c-.05.031-.187.127-.412.287-.143.11-.217.165-.222.164a.442.442 0 01-.272-.201.438.438 0 01-.056-.342c.015-.06.044-.139.088-.235a15.024 15.024 0 01.206-.432c.027-.047.056-.102.087-.164.022-.048.045-.101.069-.159.03-.058.076-.129.139-.216.064-.091.155-.217.273-.376a.75.75 0 00.094-.298.78.78 0 01.008-.07.231.231 0 01.151-.164.427.427 0 01.27-.025.344.344 0 01.261.215c.044.106.054.21.03.311a.558.558 0 01-.12.236l-.131.185-.173.224a.912.912 0 00-.126.194c-.003.015 0 .024.01.026l.008.002c.025.006.072-.012.14-.054a5.73 5.73 0 01.694-.333c.272-.111.461-.171.57-.177.04.01.088.042.144.098a.639.639 0 01.135.209.356.356 0 01.023.238l-.021.059-.129.241c-.072.144-.12.226-.146.246.122-.088.32-.185.596-.291.276-.111.471-.155.583-.134.166.039.259.133.277.282.018.148.006.357-.036.624-.038.253-.05.426-.035.521.003.033.033.066.088.101a.422.422 0 01.126.11c.035.035.042.093.023.174a.245.245 0 01-.207.199.815.815 0 01-.364-.015zM316.64 177.686a.298.298 0 01-.136-.064 1.234 1.234 0 01-.125-.15 1.404 1.404 0 01-.157-.382.522.522 0 01.011-.318.2.2 0 00.04-.102l.016-.069c-.015-.025-.022-.04-.021-.045.002-.01.009-.016.02-.019a.11.11 0 00.03-.025c.031.007.047-.018.05-.076 0-.043.038-.127.116-.253a1.89 1.89 0 01.264-.338c.077-.078.184-.173.322-.284.144-.11.266-.19.369-.241.304-.158.562-.235.774-.233a1.3 1.3 0 01.304.032c.147.035.251.102.312.202.1.072.166.157.196.255s.036.22.017.365a1.003 1.003 0 01-.028.153c-.088.375-.321.731-.699 1.068-.156.14-.304.246-.443.32-.14.073-.306.141-.496.203a.83.83 0 01-.316.053 3.19 3.19 0 01-.42-.052zm.991-.742a.848.848 0 00.265-.21c.067-.08.167-.222.3-.425.041-.038.078-.126.11-.262.029-.122.027-.194-.004-.218a.153.153 0 00-.084-.052c-.045-.01-.127.008-.245.054-.212.11-.398.234-.559.372a1.546 1.546 0 00-.375.504.5.5 0 00-.029.09c-.04.172 0 .272.121.301.116.027.283-.024.5-.154z"/></svg>