<svg width="37" height="26" viewBox="0 0 37 26" fill="none" xmlns="http://www.w3.org/2000/svg">
<path fill-rule="evenodd" clip-rule="evenodd" d="M27.3299 25.9688C27.3299 25.9688 26.1885 24.6267 25.2373 23.4718C29.3907 22.317 30.976 19.7888 30.976 19.7888C29.6761 20.6315 28.4396 21.2246 27.3299 21.6303C25.7446 22.2858 24.2228 22.6915 22.7326 22.9724C19.6889 23.5342 16.8989 23.3782 14.521 22.9412C12.7138 22.5979 11.1602 22.1297 9.86028 21.5991C9.13106 21.3182 8.33849 20.9749 7.54586 20.5379C7.4983 20.5067 7.45074 20.4833 7.40318 20.4599C7.35562 20.4365 7.30806 20.413 7.26051 20.3818C7.23629 20.3699 7.21669 20.358 7.19995 20.3478C7.17287 20.3313 7.15328 20.3194 7.13369 20.3194C6.56299 20.0073 6.24594 19.7888 6.24594 19.7888C6.24594 19.7888 7.76779 22.2546 11.7943 23.4406C10.8431 24.6267 9.67005 26 9.67005 26C2.66324 25.7815 0 21.287 0 21.287C0 11.3303 4.56556 3.24632 4.56556 3.24632C9.13106 -0.0933716 13.443 0.000263986 13.443 0.000263986L13.76 0.37481C8.05314 1.96662 5.45331 4.43247 5.45331 4.43247C5.45331 4.43247 6.15082 4.05792 7.32392 3.55844C10.7163 2.09147 13.4113 1.71693 14.521 1.59208L14.592 1.58025C14.752 1.55344 14.8939 1.52966 15.0599 1.52966C16.994 1.27996 19.1816 1.21754 21.4644 1.46723C24.4764 1.81057 27.7104 2.6845 31.0077 4.43247C31.0077 4.43247 28.503 2.09147 23.1131 0.499658L23.557 0.000263986C23.557 0.000263986 27.9006 -0.0933716 32.4344 3.24632C32.4344 3.24632 37 11.3303 37 21.287C37 21.287 36.9926 21.2962 36.9777 21.3183C36.7078 21.7167 33.9682 25.7618 27.3299 25.9688ZM9.353 14.9509C9.353 13.047 10.7797 11.5176 12.5869 11.5176C14.3941 11.5176 15.8526 13.047 15.8209 14.9509C15.8209 16.8549 14.3941 18.3843 12.5869 18.3843C10.8114 18.3843 9.353 16.8549 9.353 14.9509ZM20.9254 14.9509C20.9254 13.047 22.3522 11.5176 24.1594 11.5176C25.9349 11.5176 27.3933 13.047 27.3933 14.9509C27.3933 16.8549 25.9666 18.3843 24.1594 18.3843C22.3839 18.3843 20.9254 16.8549 20.9254 14.9509Z" fill="white"/>
</svg>
